<svg width="16" height="10" viewBox="0 0 16 10" fill="none" xmlns="http://www.w3.org/2000/svg">
<path d="M10.3443 1.16606H5.65712V8.83322H10.3443V1.16606Z" fill="#FF5F00"/>
<path d="M6.14011 5.00044C6.13953 4.26216 6.30663 3.53342 6.62878 2.86937C6.95093 2.20532 7.41968 1.62336 7.99955 1.16754C7.28135 0.602246 6.41884 0.250726 5.5106 0.153151C4.60235 0.0555757 3.68502 0.215882 2.86345 0.61575C2.04187 1.01562 1.34919 1.63891 0.864585 2.4144C0.379976 3.18988 0.122986 4.08627 0.122986 5.00111C0.122986 5.91596 0.379976 6.81235 0.864585 7.58783C1.34919 8.36332 2.04187 8.98661 2.86345 9.38648C3.68502 9.78635 4.60235 9.94665 5.5106 9.84908C6.41884 9.7515 7.28135 9.39998 7.99955 8.83469C7.4195 8.37873 6.95064 7.79655 6.62848 7.13225C6.30633 6.46795 6.13932 5.73895 6.14011 5.00044Z" fill="#EB001B"/>
<path d="M15.4111 8.02209V7.86498H15.4787V7.83247H15.3178V7.86498H15.3814V8.02209H15.4111ZM15.7235 8.02209V7.83247H15.6748L15.618 7.96791L15.5612 7.83247H15.5125V8.02209H15.5477V7.87852L15.6004 8.00177H15.6369L15.6897 7.87852V8.02209H15.7235Z" fill="#F79E1B"/>
<path d="M15.8769 5.00004C15.8769 5.91495 15.6198 6.8114 15.1351 7.58691C14.6505 8.36242 13.9577 8.9857 13.136 9.38551C12.3143 9.78532 11.3969 9.94553 10.4886 9.84781C9.5803 9.7501 8.71778 9.39841 7.99963 8.83294C8.57928 8.37671 9.04789 7.79459 9.37013 7.1305C9.69236 6.46642 9.85979 5.73771 9.85979 4.99936C9.85979 4.26101 9.69236 3.5323 9.37013 2.86822C9.04789 2.20413 8.57928 1.62201 7.99963 1.16578C8.71778 0.600314 9.5803 0.248623 10.4886 0.150907C11.3969 0.0531922 12.3143 0.213396 13.136 0.613206C13.9577 1.01302 14.6505 1.6363 15.1351 2.41181C15.6198 3.18732 15.8769 4.08377 15.8769 4.99868V5.00004Z" fill="#F79E1B"/>
</svg>
