<svg width="26" height="8" viewBox="0 0 26 8" fill="none" xmlns="http://www.w3.org/2000/svg">
<path d="M13.0177 2.55756C13.0033 3.67194 14.0267 4.29384 14.7977 4.66357C15.5898 5.04296 15.8559 5.28622 15.8528 5.62544C15.8468 6.14469 15.221 6.37381 14.6352 6.38274C13.6133 6.39836 13.0192 6.11121 12.5468 5.89399L12.1787 7.58936C12.6526 7.80435 13.5302 7.99182 14.4402 8C16.5762 8 17.9737 6.96225 17.9813 5.35317C17.9896 3.31114 15.1114 3.19807 15.131 2.28529C15.1378 2.00855 15.4061 1.71322 15.9942 1.63809C16.2852 1.60015 17.0886 1.57114 17.9994 1.98401L18.3569 0.343686C17.8671 0.168124 17.2375 0 16.4537 0C14.4432 0 13.029 1.05189 13.0177 2.55756ZM21.7922 0.141343C21.4022 0.141343 21.0734 0.36526 20.9267 0.708945L17.8754 7.87949H20.0099L20.4347 6.7242H23.0431L23.2895 7.87949H25.1707L23.5291 0.141343H21.7922ZM22.0907 2.23173L22.7067 5.13744H21.0197L22.0907 2.23173ZM10.4297 0.141343L8.74725 7.87949H10.7812L12.4629 0.141343H10.4297ZM7.42076 0.141343L5.30368 5.40822L4.44732 0.929887C4.34679 0.42998 3.94998 0.141343 3.50933 0.141343H0.0483733L0 0.366004C0.710482 0.517761 1.51771 0.762507 2.00674 1.02436C2.30604 1.1843 2.39145 1.32416 2.48971 1.7043L4.11173 7.87949H6.26132L9.55675 0.141343H7.42076Z" fill="url(#paint0_linear)"/>
<defs>
<linearGradient id="paint0_linear" x1="24.3478" y1="4.02351" x2="3.5439" y2="0.0245938" gradientUnits="userSpaceOnUse">
<stop stop-color="#222862"/>
<stop offset="1" stop-color="#2547A0"/>
</linearGradient>
</defs>
</svg>
