<svg width="20" height="13" viewBox="0 0 20 13" fill="none" xmlns="http://www.w3.org/2000/svg">
<g clip-path="url(#clip0)">
<path d="M12.9307 1.42197H7.07178V10.7722H12.9307V1.42197Z" fill="#FF5F00"/>
<path d="M7.67509 6.09788C7.67436 5.19754 7.88325 4.30883 8.28593 3.49902C8.68862 2.6892 9.27455 1.9795 9.99939 1.42361C9.10164 0.734231 8.0235 0.305548 6.8882 0.186554C5.7529 0.0675605 4.60623 0.263057 3.57926 0.750699C2.55229 1.23834 1.68645 1.99846 1.08069 2.94417C0.474924 3.88988 0.153687 4.98304 0.153687 6.09871C0.153687 7.21437 0.474924 8.30753 1.08069 9.25324C1.68645 10.199 2.55229 10.9591 3.57926 11.4467C4.60623 11.9344 5.7529 12.1298 6.8882 12.0109C8.0235 11.8919 9.10164 11.4632 9.99939 10.7738C9.27433 10.2177 8.68826 9.50777 8.28556 8.69765C7.88287 7.88753 7.67411 6.9985 7.67509 6.09788Z" fill="#EB001B"/>
<path d="M19.2646 9.78278V9.59118H19.3491V9.55154H19.1479V9.59118H19.2274V9.78278H19.2646ZM19.6551 9.78278V9.55154H19.5942L19.5232 9.71671L19.4522 9.55154H19.3914V9.78278H19.4353V9.6077L19.5012 9.758H19.5469L19.6128 9.6077V9.78278H19.6551Z" fill="#F79E1B"/>
<path d="M19.8462 6.09792C19.8462 7.21366 19.5249 8.30689 18.919 9.25264C18.3132 10.1984 17.4472 10.9585 16.4201 11.4461C15.393 11.9336 14.2462 12.129 13.1108 12.0098C11.9755 11.8907 10.8973 11.4618 9.99963 10.7722C10.7242 10.2158 11.31 9.50591 11.7128 8.69604C12.1155 7.88618 12.3248 6.99752 12.3248 6.09709C12.3248 5.19666 12.1155 4.308 11.7128 3.49814C11.31 2.68828 10.7242 1.97837 9.99963 1.42199C10.8973 0.7324 11.9755 0.303508 13.1108 0.184343C14.2462 0.0651782 15.393 0.260549 16.4201 0.748122C17.4472 1.2357 18.3132 1.9958 18.919 2.94154C19.5249 3.88729 19.8462 4.98052 19.8462 6.09626V6.09792Z" fill="#F79E1B"/>
</g>
<defs>
<clipPath id="clip0">
<rect width="20" height="12.1951" fill="white"/>
</clipPath>
</defs>
</svg>
