<svg width="22" height="8" viewBox="0 0 22 8" fill="none" xmlns="http://www.w3.org/2000/svg">
<path d="M11.3779 2.6144C11.3653 3.59736 12.2598 4.14593 12.9336 4.47205C13.626 4.80671 13.8585 5.02128 13.8559 5.3205C13.8506 5.77852 13.3036 5.98062 12.7916 5.98849C11.8984 6.00227 11.3792 5.74899 10.9663 5.55738L10.6446 7.05283C11.0588 7.24246 11.8258 7.40782 12.6212 7.41504C14.4881 7.41504 15.7096 6.49966 15.7162 5.08034C15.7234 3.27911 13.2078 3.17937 13.225 2.37423C13.2309 2.13013 13.4654 1.86963 13.9794 1.80335C14.2337 1.76989 14.936 1.7443 15.732 2.10848L16.0445 0.661593C15.6164 0.506733 15.0661 0.358435 14.3811 0.358435C12.6238 0.358435 11.3878 1.28628 11.3779 2.6144ZM19.047 0.48311C18.7061 0.48311 18.4188 0.680622 18.2906 0.983779L15.6237 7.30874H17.4893L17.8605 6.28968H20.1404L20.3557 7.30874H22L20.5651 0.48311H19.047ZM19.308 2.32699L19.8464 4.89004H18.3719L19.308 2.32699ZM9.11591 0.48311L7.64537 7.30874H9.4231L10.893 0.48311H9.11591ZM6.48598 0.48311L4.63558 5.12889L3.88709 1.17867C3.79923 0.73771 3.45241 0.48311 3.06726 0.48311H0.0422797L0 0.681278C0.620984 0.81514 1.32653 1.03102 1.75395 1.262C2.01555 1.40308 2.0902 1.52644 2.17609 1.86175L3.59378 7.30874H5.47258L8.35289 0.48311H6.48598Z" fill="url(#paint0_linear)"/>
<defs>
<linearGradient id="paint0_linear" x1="21.2807" y1="3.90747" x2="3.0857" y2="0.441932" gradientUnits="userSpaceOnUse">
<stop stop-color="#222862"/>
<stop offset="1" stop-color="#2547A0"/>
</linearGradient>
</defs>
</svg>
