<svg width="14" height="16" viewBox="0 0 14 16" fill="none" xmlns="http://www.w3.org/2000/svg">
<path d="M3.83334 7.99998C3.83334 8.27612 4.0572 8.49998 4.33334 8.49998C4.60948 8.49998 4.83334 8.27612 4.83334 7.99998H3.83334ZM9.16667 7.99998C9.16667 8.27612 9.39053 8.49998 9.66667 8.49998C9.94281 8.49998 10.1667 8.27612 10.1667 7.99998H9.16667ZM3.66667 11.5C3.39053 11.5 3.16667 11.7238 3.16667 12C3.16667 12.2761 3.39053 12.5 3.66667 12.5V11.5ZM10.3333 12.5C10.6095 12.5 10.8333 12.2761 10.8333 12C10.8333 11.7238 10.6095 11.5 10.3333 11.5V12.5ZM12.4163 5.91129L12.9152 5.87803L12.4163 5.91129ZM12.9052 13.2446L13.4041 13.2114L12.9052 13.2446ZM1.09481 13.2446L0.595918 13.2114L1.09481 13.2446ZM1.5837 5.91129L2.08259 5.94455L1.5837 5.91129ZM4.83334 7.99998V3.99998H3.83334V7.99998H4.83334ZM9.16667 3.99998V7.99998H10.1667V3.99998H9.16667ZM7.00001 1.83331C7.72524 1.83331 8.25482 2.07132 8.60372 2.43262C8.9553 2.7967 9.16667 3.33101 9.16667 3.99998H10.1667C10.1667 3.11868 9.88478 2.31965 9.32307 1.73797C8.75867 1.15351 7.95492 0.833313 7.00001 0.833313V1.83331ZM7.00001 0.833313C6.0451 0.833313 5.24135 1.15351 4.67695 1.73797C4.11523 2.31965 3.83334 3.11868 3.83334 3.99998H4.83334C4.83334 3.33101 5.04471 2.7967 5.39629 2.43262C5.74519 2.07132 6.27478 1.83331 7.00001 1.83331V0.833313ZM3.66667 12.5H10.3333V11.5H3.66667V12.5ZM2.91408 5.16665H11.0859V4.16665H2.91408V5.16665ZM11.9174 5.94455L12.4063 13.2779L13.4041 13.2114L12.9152 5.87803L11.9174 5.94455ZM11.5748 14.1666H2.42519V15.1666H11.5748V14.1666ZM1.5937 13.2779L2.08259 5.94455L1.08481 5.87803L0.595918 13.2114L1.5937 13.2779ZM2.42519 14.1666C1.94314 14.1666 1.56164 13.7589 1.5937 13.2779L0.595918 13.2114C0.525373 14.2695 1.36467 15.1666 2.42519 15.1666V14.1666ZM12.4063 13.2779C12.4384 13.7589 12.0569 14.1666 11.5748 14.1666V15.1666C12.6353 15.1666 13.4746 14.2695 13.4041 13.2114L12.4063 13.2779ZM11.0859 5.16665C11.5247 5.16665 11.8882 5.5068 11.9174 5.94455L12.9152 5.87803C12.851 4.91498 12.0511 4.16665 11.0859 4.16665V5.16665ZM2.91408 4.16665C1.9489 4.16665 1.14901 4.91498 1.08481 5.87803L2.08259 5.94455C2.11177 5.5068 2.47536 5.16665 2.91408 5.16665V4.16665Z" fill="#76777C"/>
</svg>
