<svg width="16" height="16" viewBox="0 0 16 16" fill="none" xmlns="http://www.w3.org/2000/svg">
<path d="M4.59918 8.28571C4.438 8.37157 2 8.98082 2 10.4432C2 10.4529 2.00005 10.4627 2.00014 10.4724C2.01794 12.2661 4.29825 12.6615 6.07815 12.8845L7 13M6.8 9.85714C4.99924 9.85714 3.6 7.15027 3.6 4.37858C3.6 3.08574 5.0089 2 6.8 2C8.5911 2 10 3.08574 10 4.37858C10 5.49142 9.52004 6.72428 9 7.76921" stroke="#76777C" stroke-width="0.930233"/>
<path d="M10.3315 9.63114V11.2383M10.3315 11.2383V12.8454M10.3315 11.2383H11.9387M10.3315 11.2383H8.7244M6.58154 11.2383C6.58154 13.3093 8.26047 14.9883 10.3315 14.9883C12.4026 14.9883 14.0815 13.3093 14.0815 11.2383C14.0815 9.16721 12.4026 7.48828 10.3315 7.48828C8.26047 7.48828 6.58154 9.16721 6.58154 11.2383Z" stroke="#76777C" stroke-width="0.930233" stroke-linecap="round" stroke-linejoin="round"/>
</svg>
