<svg width="14" height="13" viewBox="0 0 14 13" fill="none" xmlns="http://www.w3.org/2000/svg">
<path d="M11.2903 7.085C11.3134 6.8975 11.3289 6.7025 11.3289 6.5C11.3289 6.2975 11.3134 6.1025 11.2826 5.915L12.5863 4.925C12.7021 4.835 12.7329 4.67 12.6635 4.5425L11.4292 2.465C11.352 2.33 11.19 2.285 11.0512 2.33L9.51598 2.93C9.19197 2.69 8.85253 2.495 8.47452 2.345L8.24309 0.755C8.21995 0.605 8.0888 0.5 7.93451 0.5H5.46588C5.31159 0.5 5.18816 0.605 5.16502 0.755L4.93358 2.345C4.55557 2.495 4.20842 2.6975 3.89213 2.93L2.35695 2.33C2.21809 2.2775 2.05609 2.33 1.97894 2.465L0.744627 4.5425C0.667482 4.6775 0.69834 4.835 0.821772 4.925L2.12552 5.915C2.09466 6.1025 2.07152 6.305 2.07152 6.5C2.07152 6.695 2.08694 6.8975 2.1178 7.085L0.814057 8.075C0.69834 8.165 0.667482 8.33 0.736913 8.4575L1.97123 10.535C2.04837 10.67 2.21038 10.715 2.34924 10.67L3.88442 10.07C4.20842 10.31 4.54786 10.505 4.92587 10.655L5.1573 12.245C5.18816 12.395 5.31159 12.5 5.46588 12.5H7.93451C8.0888 12.5 8.21995 12.395 8.23537 12.245L8.46681 10.655C8.84482 10.505 9.19197 10.3025 9.50826 10.07L11.0434 10.67C11.1823 10.7225 11.3443 10.67 11.4215 10.535L12.6558 8.4575C12.7329 8.3225 12.7021 8.165 12.5786 8.075L11.2903 7.085ZM6.7002 8.75C5.42731 8.75 4.38586 7.7375 4.38586 6.5C4.38586 5.2625 5.42731 4.25 6.7002 4.25C7.97308 4.25 9.01454 5.2625 9.01454 6.5C9.01454 7.7375 7.97308 8.75 6.7002 8.75Z" stroke="#76777C" stroke-linejoin="round"/>
</svg>
