<svg width="12" height="14" viewBox="0 0 12 14" fill="none" xmlns="http://www.w3.org/2000/svg">
<path d="M8.29252 7.85714C8.46214 7.95192 11 8.61866 11 10.2108C11 11.2574 10.5126 12.209 9.53752 12.5084C8.69507 12.7672 7.50597 13 6 13C4.49398 13 3.3049 12.7672 2.46248 12.5084C1.48744 12.209 1 11.2574 1 10.2108C1 8.61544 3.53959 7.9508 3.70748 7.85714M6 9.57143C7.87579 9.57143 9.33333 6.61848 9.33333 3.59482C9.33333 2.18445 7.86573 1 6 1C4.13427 1 2.66667 2.18445 2.66667 3.59482C2.66667 6.61848 4.12421 9.57143 6 9.57143Z" stroke="#76777C"/>
</svg>
