<svg width="11" height="12" viewBox="0 0 11 12" fill="none" xmlns="http://www.w3.org/2000/svg">
<path d="M4.7085 1.8335C4.98464 1.8335 5.2085 1.60964 5.2085 1.3335C5.2085 1.05735 4.98464 0.833496 4.7085 0.833496L4.7085 1.8335ZM4.7085 11.396C4.98464 11.396 5.2085 11.1721 5.2085 10.896C5.2085 10.6199 4.98464 10.396 4.7085 10.396L4.7085 11.396ZM4.146 5.61475C3.86985 5.61475 3.646 5.8386 3.646 6.11475C3.646 6.39089 3.86985 6.61475 4.146 6.61475L4.146 5.61475ZM10.3335 6.11475L10.687 6.4683C10.8823 6.27304 10.8823 5.95646 10.687 5.76119L10.3335 6.11475ZM7.87455 2.94869C7.67929 2.75343 7.3627 2.75343 7.16744 2.94869C6.97218 3.14395 6.97218 3.46054 7.16744 3.6558L7.87455 2.94869ZM7.16744 8.57369C6.97218 8.76896 6.97218 9.08554 7.16744 9.2808C7.3627 9.47606 7.67929 9.47606 7.87455 9.2808L7.16744 8.57369ZM4.7085 0.833496L3.021 0.833496L3.021 1.8335L4.7085 1.8335L4.7085 0.833496ZM0.833496 3.021L0.833496 9.2085L1.8335 9.2085L1.8335 3.021L0.833496 3.021ZM3.021 11.396L4.7085 11.396L4.7085 10.396L3.021 10.396L3.021 11.396ZM4.146 6.61475L10.3335 6.61475L10.3335 5.61475L4.146 5.61475L4.146 6.61475ZM10.687 5.76119L7.87455 2.94869L7.16744 3.6558L9.97994 6.4683L10.687 5.76119ZM9.97994 5.76119L7.16744 8.57369L7.87455 9.2808L10.687 6.4683L9.97994 5.76119ZM0.833496 9.2085C0.833496 10.4166 1.81287 11.396 3.021 11.396L3.021 10.396C2.36516 10.396 1.8335 9.86433 1.8335 9.2085L0.833496 9.2085ZM3.021 0.833496C1.81287 0.833496 0.833496 1.81287 0.833496 3.021L1.8335 3.021C1.8335 2.36516 2.36516 1.8335 3.021 1.8335L3.021 0.833496Z" fill="#76777C"/>
</svg>
