<svg width="77" height="20" viewBox="0 0 77 20" fill="none" xmlns="http://www.w3.org/2000/svg">
<path opacity="0.8" d="M7.90542 19.1664C9.43992 19.1664 10.6525 18.5792 11.5431 17.4047C12.4337 16.2302 12.8791 14.5728 12.8791 12.4324C12.8791 10.3539 12.4472 8.71772 11.5836 7.52391C10.72 6.3301 9.52474 5.7332 7.99795 5.7332C6.37863 5.7332 5.15642 6.37453 4.33134 7.6572H4.19254C4.28507 6.48271 4.33134 5.62889 4.33134 5.09573V0.900024H0.803528V18.9346H3.49854L4.08844 17.509H4.33134C5.19498 18.6139 6.38634 19.1664 7.90542 19.1664ZM6.91069 16.3036C6.01621 16.3036 5.36269 16.0023 4.95015 15.3996C4.53761 14.7969 4.33134 13.8001 4.33134 12.4092V12.0268C4.34676 10.7905 4.55496 9.90379 4.95594 9.36677C5.35691 8.82976 5.99307 8.56125 6.86442 8.56125C7.6124 8.56125 8.20229 8.87998 8.63411 9.51745C9.06593 10.1549 9.28184 11.1111 9.28184 12.3861C9.28184 13.661 9.06786 14.6327 8.6399 15.301C8.21193 15.9694 7.63553 16.3036 6.91069 16.3036ZM21.6465 19.1664C22.6567 19.1664 23.5126 19.0911 24.2143 18.9404C24.916 18.7897 25.5753 18.5599 26.1922 18.2508V15.5155C25.4365 15.8709 24.7117 16.1297 24.0177 16.292C23.3237 16.4543 22.5873 16.5354 21.8085 16.5354C20.806 16.5354 20.0272 16.2534 19.472 15.6893C18.9168 15.1252 18.6199 14.341 18.5814 13.3365H26.9209V11.6211C26.9209 9.7821 26.412 8.34103 25.3941 7.2979C24.3762 6.25477 22.9536 5.7332 21.126 5.7332C19.2137 5.7332 17.7158 6.32624 16.6324 7.51232C15.549 8.6984 15.0073 10.3771 15.0073 12.5483C15.0073 14.6578 15.5933 16.2881 16.7654 17.4395C17.9375 18.5908 19.5645 19.1664 21.6465 19.1664ZM23.6129 10.9836H18.6623C18.724 10.1105 18.9669 9.43632 19.391 8.96111C19.8152 8.48591 20.4012 8.24831 21.1492 8.24831C21.8971 8.24831 22.4909 8.48591 22.9304 8.96111C23.37 9.43632 23.5974 10.1105 23.6129 10.9836Z" fill="#767986"/>
<path d="M33.6527 18.9346V12.9076H35.191C37.2884 12.9076 38.9058 12.4247 40.0432 11.4588C41.1806 10.493 41.7493 9.09827 41.7493 7.27472C41.7493 5.52071 41.2153 4.20134 40.1473 3.31661C39.0793 2.43188 37.5198 1.98952 35.4686 1.98952H30.067V18.9346H33.6527ZM34.8325 9.96368H33.6527V4.93347H35.2836C36.2629 4.93347 36.9819 5.13437 37.4407 5.53616C37.8995 5.93796 38.1289 6.55998 38.1289 7.40221C38.1289 8.23672 37.8552 8.87225 37.3077 9.30882C36.7602 9.74539 35.9351 9.96368 34.8325 9.96368ZM47.1135 19.1664C48.1236 19.1664 48.9429 19.0215 49.5714 18.7318C50.1998 18.442 50.8109 17.9224 51.4047 17.1729H51.4972L52.1797 18.9346H54.6434V10.2998C54.6434 8.75442 54.1807 7.60311 53.2554 6.84587C52.33 6.08864 50.9999 5.71002 49.2649 5.71002C47.4528 5.71002 45.8026 6.10023 44.3144 6.88064L45.4826 9.26826C46.8783 8.64238 48.0928 8.32944 49.1261 8.32944C50.4678 8.32944 51.1387 8.98623 51.1387 10.2998V10.8677L48.8947 10.9373C46.9593 11.0068 45.5115 11.368 44.5515 12.021C43.5915 12.6739 43.1114 13.688 43.1114 15.0634C43.1114 16.377 43.4681 17.3892 44.1814 18.1001C44.8946 18.811 45.872 19.1664 47.1135 19.1664ZM48.4437 16.5818C47.3024 16.5818 46.7318 16.0834 46.7318 15.0866C46.7318 14.3912 46.9824 13.8735 47.4836 13.5335C47.9848 13.1935 48.7482 13.0081 49.7738 12.9772L51.1387 12.9308V13.9971C51.1387 14.7775 50.8938 15.4034 50.4042 15.8748C49.9145 16.3461 49.261 16.5818 48.4437 16.5818ZM60.045 4.36554C60.685 4.36554 61.165 4.21293 61.485 3.90772C61.805 3.60251 61.965 3.1756 61.965 2.62699C61.965 1.47568 61.325 0.900024 60.045 0.900024C58.7649 0.900024 58.1249 1.47568 58.1249 2.62699C58.1249 3.78602 58.7649 4.36554 60.045 4.36554ZM61.8031 18.9346V5.9766H58.2753V18.9346H61.8031ZM69.599 19.1664C71.2415 19.1664 72.4637 18.5289 73.2656 17.254H73.416L74.0984 18.9346H76.805V0.900024H73.2656V5.04937C73.2656 5.80661 73.3543 6.66816 73.5316 7.63402H73.416C72.5601 6.36681 71.3186 5.7332 69.6915 5.7332C68.1416 5.7332 66.9252 6.32624 66.0423 7.51232C65.1593 8.6984 64.7179 10.3539 64.7179 12.4788C64.7179 14.5728 65.1516 16.2109 66.0191 17.3931C66.8866 18.5753 68.0799 19.1664 69.599 19.1664ZM70.8366 16.35C70.0192 16.35 69.3908 16.0312 68.9513 15.3938C68.5117 14.7563 68.292 13.8001 68.292 12.5251C68.292 11.2502 68.5098 10.2785 68.9455 9.61017C69.3812 8.9418 69.9923 8.60761 70.7788 8.60761C71.7427 8.60761 72.4386 8.90896 72.8666 9.51165C73.2945 10.1144 73.5085 11.1111 73.5085 12.502V12.8844C73.47 14.1439 73.2405 15.0364 72.8203 15.5618C72.4 16.0872 71.7388 16.35 70.8366 16.35Z" fill="#767986"/>
</svg>
