<svg width="35" height="25" viewBox="0 0 35 25" fill="none" xmlns="http://www.w3.org/2000/svg">
<path d="M12.8972 0.900024C16.1994 0.900024 18.8764 2.80405 18.8764 6.19232C18.8764 7.66124 18.3208 8.90186 17.4227 9.83698C17.7588 9.8664 18.1108 9.92291 18.4789 10.0038C20.9125 10.5383 21.9984 12.3404 22.0428 14.617L22.0438 19.4377C22.0438 20.5001 22.6343 21.758 23.5584 21.9897C24.4826 22.2214 25.6562 21.6315 26.0283 20.8572L26.0566 20.7953L26.1724 20.5142L19.5539 6.58473H22.5654L27.4256 17.5083L31.8737 6.85054H34.845L28.2926 21.5633C27.3718 23.6807 24.8023 24.8239 22.3375 23.5948C21.6983 23.2761 21.2082 22.9446 20.8321 22.5892C19.6897 23.6021 18.232 24.1189 16.6074 24.0739C14.2728 24.0091 12.05 22.9484 11.634 20.5953C11.218 18.2422 12.6426 16.7019 14.3449 15.8562L19.1945 13.4383C18.9224 12.7304 18.4575 12.1142 17.6774 11.9649C16.0659 11.6566 15.5045 12.2733 14.9164 13.0235L14.8608 13.0924L12.8708 11.7608C12.8214 11.7626 12.7719 11.7639 12.7223 11.7647L12.6235 11.7655L8.83448 11.7654L8.83467 17.2585C8.83467 18.8224 7.85853 19.7522 6.97987 19.7854L3.43548 19.7866C1.7987 19.7866 0.466907 18.4468 0.42504 16.7777L0.424025 6.64618H3.16172V16.8023C3.16172 17.4053 3.64951 17.8941 4.25124 17.8941H5.00745C5.60918 17.8941 6.09698 17.4053 6.09698 16.8023V1.99179C6.09698 1.38882 6.58478 0.900024 7.18651 0.900024H12.8972ZM19.5521 15.3603L19.5007 15.4011C19.4025 15.4797 19.3116 15.5422 19.2281 15.5885C18.3489 16.0758 17.03 16.8067 15.2716 17.7813C14.2348 18.2867 13.9265 19.446 14.2011 20.2821C14.4757 21.1182 15.365 21.9543 16.9183 21.9543C18.4717 21.9543 19.5809 21.0363 19.5809 18.7005L19.5798 18.595L19.5555 15.5604C19.5555 15.4986 19.5544 15.4316 19.5521 15.3603ZM8.83448 2.86615V9.79909L12.6235 9.79919C14.6875 9.79919 16.1387 8.24559 16.1387 6.19232C16.1387 4.13904 14.458 2.91224 12.7058 2.86739L12.6235 2.86634L8.83448 2.86615ZM1.8958 0.966684C2.87859 0.966684 3.6753 1.78415 3.6753 2.79255C3.6753 3.80095 2.87859 4.61841 1.8958 4.61841C0.913011 4.61841 0.116302 3.80095 0.116302 2.79255C0.116302 1.78415 0.913011 0.966684 1.8958 0.966684Z" fill="#767986"/>
</svg>
