<svg width="31" height="25" viewBox="0 0 31 25" fill="none" xmlns="http://www.w3.org/2000/svg">
<path d="M23.1682 22.0374L23.1733 22.0452C23.3479 22.0447 23.521 22.0784 23.6833 22.1445C23.8382 22.208 23.9794 22.3021 24.0989 22.4214C24.2169 22.5396 24.3106 22.6809 24.3743 22.8368C24.5076 23.1718 24.5076 23.5469 24.3743 23.8819C24.3106 24.0378 24.217 24.1791 24.0989 24.2973C23.9794 24.4166 23.8382 24.5107 23.6833 24.5742C23.3471 24.7081 22.9741 24.7081 22.6378 24.5742C22.4837 24.5107 22.3433 24.4166 22.2247 24.2973C22.1079 24.1786 22.0152 24.0375 21.9519 23.8819C21.8189 23.5468 21.8189 23.1719 21.9519 22.8368C22.0152 22.6812 22.1079 22.54 22.2247 22.4214C22.3433 22.3021 22.4837 22.208 22.6378 22.1445C22.8059 22.0731 22.9862 22.0367 23.1682 22.0374ZM16.1992 22.04C16.5475 22.028 16.8917 22.1187 17.1912 22.3012L16.954 22.7402C16.7212 22.6028 16.4577 22.529 16.189 22.5259C15.8984 22.5259 15.725 22.6357 15.725 22.8185C15.725 23.0014 15.9086 23.0328 16.138 23.0641L16.393 23.1007C16.9234 23.1791 17.2447 23.409 17.2447 23.8479C17.2447 24.2868 16.8367 24.663 16.1355 24.663C15.7597 24.6733 15.3905 24.5597 15.0824 24.3391L15.3374 23.9158C15.5714 24.0937 15.857 24.1857 16.1482 24.1771C16.5103 24.1771 16.7041 24.0674 16.7041 23.874C16.7041 23.733 16.5664 23.6546 16.2757 23.6128L16.0208 23.5762C15.4751 23.4978 15.1793 23.247 15.1793 22.8394C15.1793 22.343 15.5771 22.04 16.1992 22.04ZM18.6395 21.345V22.1027H19.504V22.5991H18.6395V23.7251C18.6395 23.9864 18.7262 24.1431 18.9914 24.1431C19.1569 24.1375 19.3184 24.089 19.4606 24.0021L19.6136 24.4671C19.4148 24.5942 19.185 24.6612 18.9506 24.6604C18.3233 24.6604 18.104 24.3156 18.104 23.7356V22.5991H17.6094V22.1027H18.104V21.345H18.6395ZM13.5677 22.0452C14.2485 22.0452 14.7228 22.5677 14.7228 23.3515C14.7228 23.4247 14.7228 23.49 14.7152 23.5553H12.9073C12.9487 23.9278 13.272 24.1988 13.6366 24.1666C13.8946 24.1628 14.1441 24.0708 14.3454 23.9054L14.6004 24.3077C14.3213 24.5459 13.9664 24.6705 13.6034 24.6578C12.8993 24.6679 12.3205 24.0913 12.3106 23.3698C12.3007 22.6483 12.8636 22.0553 13.5677 22.0452ZM10.5409 22.0426C10.8386 22.0309 11.1235 22.1671 11.3059 22.4084V22.1053H11.8414V23.3515L11.8363 24.5925H11.3059V24.2894C11.1235 24.5307 10.8386 24.6669 10.5409 24.6552C9.8368 24.6552 9.26597 24.0704 9.26597 23.3489C9.26597 22.6274 9.8368 22.0426 10.5409 22.0426ZM21.3374 22.04C21.466 22.0405 21.5936 22.0635 21.7148 22.1079L21.5516 22.6304C21.4462 22.5874 21.3335 22.5661 21.2201 22.5677C20.8733 22.5677 20.7101 22.7976 20.7101 23.2104V24.6082H20.1797V22.1131H20.705V22.4162C20.8376 22.1828 21.0841 22.0425 21.3476 22.0504L21.3374 22.04ZM7.90176 22.04C8.16156 22.0243 8.41537 22.124 8.59842 22.3135C8.78146 22.5031 8.87603 22.7642 8.85799 23.0302V24.5977H8.32505V23.2104C8.32505 22.7872 8.15165 22.552 7.78956 22.552C7.61973 22.5436 7.45498 22.6128 7.33978 22.7409C7.22457 22.869 7.17076 23.0429 7.19288 23.2157V24.5977H6.65739V23.2104C6.65739 22.7872 6.4789 22.552 6.12701 22.552C5.95663 22.5417 5.79072 22.6103 5.67508 22.7389C5.55944 22.8675 5.50629 23.0425 5.53032 23.2157V24.5977H4.99483V22.1027H5.52522V22.411C5.68219 22.1664 5.95384 22.0252 6.2392 22.04C6.56694 22.0255 6.87612 22.196 7.04498 22.4841C7.23019 22.1871 7.5585 22.0169 7.90176 22.04ZM23.1682 22.552L23.1733 22.5677C23.0695 22.5663 22.9664 22.5858 22.8699 22.6252C22.779 22.6625 22.6966 22.7186 22.6276 22.7898C22.5573 22.8648 22.5027 22.9537 22.467 23.0511C22.3891 23.2597 22.3891 23.4904 22.467 23.699C22.5026 23.7964 22.5573 23.8853 22.6276 23.9602C22.6965 24.0316 22.779 24.0876 22.8699 24.1248C23.0641 24.2028 23.2799 24.2028 23.4742 24.1248C23.5695 24.0888 23.6563 24.0327 23.7292 23.9602C23.7997 23.8854 23.8544 23.7964 23.8899 23.699C23.9678 23.4904 23.9678 23.2597 23.8899 23.0511C23.8544 22.9536 23.7997 22.8647 23.7292 22.7898C23.6563 22.7173 23.5695 22.6613 23.4742 22.6252C23.378 22.5801 23.274 22.5552 23.1682 22.552ZM10.6336 22.6414C10.233 22.626 9.8939 22.9415 9.87031 23.3515C9.8508 23.5613 9.92336 23.7676 10.0651 23.9198C10.2068 24.072 10.4046 24.1559 10.6098 24.151C11.0106 24.1488 11.3363 23.8188 11.3428 23.4081C11.3493 22.9975 11.0342 22.6568 10.6336 22.6414ZM13.5499 22.5285C13.2129 22.5209 12.9303 22.7874 12.9098 23.1321L14.167 23.1347C14.1636 22.9704 14.0967 22.8143 13.981 22.7006C13.8652 22.5869 13.7102 22.525 13.5499 22.5285ZM9.62533 0.900024C11.5125 0.900024 13.2636 1.48392 14.7086 2.48127C12.6567 4.2883 11.3618 6.93762 11.3618 9.89002C11.3618 12.8424 12.6567 15.4917 14.7086 17.2988C13.2636 18.2961 11.5125 18.88 9.62533 18.88C4.67046 18.88 0.653748 14.8551 0.653748 9.89002C0.653748 4.92498 4.67046 0.900024 9.62533 0.900024ZM21.2016 0.900024C26.1564 0.900024 30.1731 4.92498 30.1731 9.89002C30.1731 14.8551 26.1564 18.88 21.2016 18.88C19.3144 18.88 17.5632 18.2961 16.1183 17.2988C18.1702 15.4917 19.4651 12.8424 19.4651 9.89002C19.4651 6.93762 18.1702 4.2883 16.1183 2.48127C17.5632 1.48392 19.3144 0.900024 21.2016 0.900024ZM15.4134 3.02099C17.3605 4.67008 18.5969 7.13536 18.5969 9.89002C18.5969 12.6447 17.3605 15.11 15.4134 16.7591C13.4664 15.11 12.23 12.6447 12.23 9.89002C12.23 7.13536 13.4664 4.67008 15.4134 3.02099Z" fill="#8D909B"/>
</svg>
