<svg width="31" height="25" viewBox="0 0 31 25" fill="none" xmlns="http://www.w3.org/2000/svg">
<path d="M5.87059 24.6399H5.2899V23.2984C5.2899 22.8935 5.11317 22.6657 4.75971 22.6657C4.43149 22.6657 4.17902 22.8682 4.17902 23.2984V24.6399H3.64883V23.2984C3.64883 22.8935 3.4721 22.6657 3.11864 22.6657C2.76517 22.6657 2.53795 22.8682 2.53795 23.2984V24.6399H2.00776V22.2101H2.53795V22.5138C2.73993 22.2354 2.9924 22.1595 3.24487 22.1595C3.62358 22.1595 3.87605 22.3114 4.05278 22.5898C4.28001 22.2607 4.60822 22.1595 4.91119 22.1595C5.51712 22.1595 5.87059 22.5391 5.87059 23.1213V24.6399ZM13.7225 22.2101V22.691H12.8641V23.7793C12.8641 24.0324 12.9651 24.1843 13.2175 24.1843C13.3438 24.1843 13.5205 24.159 13.672 24.0578L13.8235 24.5133C13.6467 24.6146 13.3943 24.6905 13.167 24.6905C12.5611 24.6905 12.3339 24.3615 12.3339 23.8047V22.691H11.8542V22.2101H12.3339V21.4761H12.8641V22.2101H13.7225ZM18.2165 22.1595C18.3175 22.1595 18.469 22.1595 18.57 22.1848L18.4185 22.691C18.3175 22.6657 18.1912 22.6404 18.0903 22.6404C17.762 22.6404 17.5853 22.8682 17.5853 23.2731V24.6399H17.0551V22.2101H17.5853V22.5138C17.7115 22.3114 17.9135 22.1595 18.2165 22.1595ZM11.425 22.4126L11.1978 22.8429C11.0463 22.7669 10.7433 22.6404 10.4403 22.6404C10.1626 22.6404 9.98589 22.7416 9.98589 22.9188C9.98589 23.0707 10.1626 23.1213 10.3898 23.1466L10.6423 23.1719C11.1473 23.2478 11.4755 23.4756 11.4755 23.9059C11.4755 24.3615 11.0715 24.6905 10.3646 24.6905C9.98589 24.6905 9.60718 24.5893 9.32946 24.3868L9.58193 23.9818C9.75866 24.1084 10.0364 24.2349 10.3898 24.2349C10.7433 24.2349 10.9453 24.1084 10.9453 23.9312C10.9453 23.8047 10.7938 23.7287 10.5161 23.6781L10.2636 23.6528C9.73341 23.5769 9.43045 23.3491 9.43045 22.9441C9.43045 22.4632 9.8344 22.1595 10.4403 22.1595C10.819 22.1595 11.1725 22.2354 11.425 22.4126ZM25.5129 22.1595C25.6139 22.1595 25.7654 22.1595 25.8664 22.1848L25.7149 22.691C25.6139 22.6657 25.4877 22.6404 25.3867 22.6404C25.0585 22.6404 24.8818 22.8682 24.8818 23.2731V24.6399H24.3516V22.2101H24.8818V22.5138C25.008 22.3114 25.21 22.1595 25.5129 22.1595ZM18.7467 23.425C18.7467 22.691 19.2516 22.1595 20.0343 22.1595C20.3878 22.1595 20.6402 22.2354 20.8927 22.4379L20.6402 22.8682C20.4382 22.7163 20.2363 22.6404 20.009 22.6404C19.5798 22.6657 19.2769 22.9694 19.2769 23.425C19.2769 23.9059 19.5798 24.2096 20.009 24.2096C20.2363 24.2096 20.4382 24.1337 20.6402 23.9818L20.8927 24.4121C20.6402 24.6146 20.3878 24.6905 20.0343 24.6905C19.2516 24.6905 18.7467 24.159 18.7467 23.425ZM23.6446 23.425V24.6399H23.1145V24.3362C22.963 24.564 22.7105 24.6905 22.357 24.6905C21.6754 24.6905 21.1452 24.159 21.1452 23.425C21.1452 22.691 21.6754 22.1595 22.357 22.1595C22.6852 22.1595 22.9377 22.286 23.1145 22.5138V22.2101H23.6446V23.425ZM21.7006 23.425C21.7006 23.8553 21.9783 24.1843 22.4328 24.2096C22.862 24.2096 23.1649 23.8553 23.1649 23.425C23.1649 22.9694 22.862 22.6404 22.4328 22.6404C21.9783 22.6404 21.7006 22.9947 21.7006 23.425ZM15.3635 22.1595C16.0452 22.1595 16.4997 22.6657 16.4744 23.4503C16.4744 23.5262 16.4744 23.5769 16.4744 23.6528H14.6819C14.7576 24.0831 15.0858 24.2349 15.414 24.2349C15.6665 24.2349 15.919 24.1337 16.121 23.9818L16.3734 24.3615C16.0957 24.5893 15.7423 24.6905 15.3888 24.6905C14.6566 24.6905 14.1517 24.1843 14.1517 23.425C14.1517 22.6657 14.6566 22.1595 15.3635 22.1595ZM15.3635 22.6151C14.9848 22.6151 14.7576 22.8682 14.7071 23.1972H15.9695C15.919 22.8176 15.6918 22.6151 15.3635 22.6151ZM28.5174 23.425V24.6399H27.9872V24.3362C27.8357 24.564 27.5832 24.6905 27.2298 24.6905C26.5481 24.6905 26.0179 24.159 26.0179 23.425C26.0179 22.691 26.5481 22.1595 27.2298 22.1595C27.558 22.1595 27.8104 22.286 27.9872 22.5138V21.2483H28.5174V23.425ZM26.5733 23.425C26.5733 23.8553 26.851 24.1843 27.3055 24.2096C27.7347 24.2096 28.0377 23.8553 28.0377 23.425C28.0377 22.9694 27.7347 22.6404 27.3055 22.6404C26.851 22.6404 26.5733 22.9947 26.5733 23.425ZM8.84976 23.425V24.6399H8.31957V24.3362C8.16808 24.564 7.91561 24.6905 7.56215 24.6905C6.88048 24.6905 6.35028 24.159 6.35028 23.425C6.35028 22.691 6.88048 22.1595 7.56215 22.1595C7.89037 22.1595 8.14284 22.286 8.31957 22.5138V22.2101H8.84976V23.425ZM6.88048 23.425C6.88048 23.8553 7.1582 24.1843 7.61265 24.2096C8.04185 24.2096 8.34482 23.8553 8.34482 23.425C8.34482 22.9694 8.04185 22.6404 7.61265 22.6404C7.1582 22.6404 6.88048 22.9947 6.88048 23.425ZM16.0253 2.48127C17.4702 1.48392 19.2213 0.900024 21.1085 0.900024C26.0634 0.900024 30.0801 4.92498 30.0801 9.89003C30.0801 14.8551 26.0634 18.88 21.1085 18.88C19.2213 18.88 17.4702 18.2961 16.0253 17.2988C18.0771 15.4918 19.3721 12.8424 19.3721 9.89003C19.3721 6.93762 18.0771 4.2883 16.0253 2.48127ZM14.6155 2.48127C12.5637 4.2883 11.2687 6.93762 11.2687 9.89003C11.2687 12.8424 12.5637 15.4918 14.6155 17.2988C13.1706 18.2961 11.4195 18.88 9.5323 18.88C4.57744 18.88 0.56073 14.8551 0.56073 9.89003C0.56073 4.92498 4.57744 0.900024 9.5323 0.900024C11.4195 0.900024 13.1706 1.48392 14.6155 2.48127ZM15.3204 3.02099C17.2675 4.67008 18.5039 7.13537 18.5039 9.89003C18.5039 12.6447 17.2675 15.11 15.3204 16.7591C13.3734 15.11 12.137 12.6447 12.137 9.89003C12.137 7.13537 13.3734 4.67008 15.3204 3.02099Z" fill="#828591"/>
</svg>
