<svg width="80" height="27" viewBox="0 0 80 27" fill="none" xmlns="http://www.w3.org/2000/svg">
<path fill-rule="evenodd" clip-rule="evenodd" d="M15.0388 0.622744C15.1443 0.517028 15.3172 0.517028 15.4221 0.622744L19.0687 4.27612C19.1742 4.38202 19.1742 4.55523 19.0687 4.66037L15.9124 5.55502H23.6695C23.8179 5.55502 23.9406 5.67741 23.9406 5.82681V10.9938C23.9406 11.1431 23.8179 11.2655 23.6695 11.2655L20.8147 9.69444L22.3826 11.2655L26.2983 15.1899C26.404 15.2958 26.404 15.469 26.2983 15.5748L22.6524 19.2281C22.5469 19.334 22.3739 19.334 22.2692 19.2281L21.3511 16.0615V23.8337C21.3511 23.9833 21.2291 24.1055 21.0801 24.1055H15.9235C15.7744 24.1055 15.6517 23.9833 15.6517 23.8337L17.2539 20.9653L15.6517 22.5702L11.792 26.4384C11.6865 26.5443 11.5142 26.5443 11.4086 26.4384L7.76135 22.785C7.65643 22.6793 7.65643 22.5061 7.76135 22.4002L10.9125 21.5082H3.15605C3.00623 21.5082 2.88482 21.3865 2.88482 21.2371V16.0702C2.88482 15.9206 3.00623 15.7984 3.15605 15.7984L6.00284 17.3695L0.518395 11.8738C0.412895 11.768 0.412895 11.5949 0.518395 11.489L4.16428 7.83558C4.26997 7.72987 4.44282 7.72987 4.5485 7.83558L5.46244 10.9937V3.22224C5.46244 3.07208 5.58442 2.95043 5.73369 2.95043H10.8906C11.0397 2.95043 11.1618 3.07208 11.1618 3.22224L9.51405 6.16934L9.50545 6.18526L9.50423 6.18856L11.1619 4.5076L15.0388 0.622744ZM50.8404 18.1582C50.9182 18.1582 50.9796 18.1703 51.0232 18.1933C51.066 18.2164 51.0971 18.2514 51.1148 18.2977C51.1321 18.3421 51.1398 18.3984 51.1394 18.4638V21.278C51.1399 21.3164 51.1321 21.3402 51.1156 21.3533C51.0978 21.3653 51.0673 21.3705 51.0232 21.3698H50.7243C50.6872 21.3706 50.6596 21.3653 50.6418 21.3533C50.6233 21.3402 50.6141 21.3164 50.6141 21.278V18.6231H49.4362L49.3992 19.0814C49.3748 19.4066 49.347 19.6904 49.3187 19.9318C49.2903 20.1738 49.2547 20.3794 49.2125 20.5507C49.1676 20.7232 49.1122 20.866 49.0441 20.9824C48.9755 21.0975 48.8904 21.1914 48.7854 21.2649C48.6818 21.3382 48.5552 21.397 48.404 21.4426C48.3883 21.4499 48.3691 21.4553 48.35 21.4593C48.3309 21.4632 48.313 21.4624 48.2952 21.4553C48.2793 21.448 48.2667 21.4321 48.2583 21.4056L48.1777 21.161C48.1691 21.1346 48.1711 21.1087 48.1829 21.0849C48.1955 21.0611 48.2179 21.042 48.2516 21.0268C48.3393 20.989 48.4147 20.9442 48.4779 20.8924C48.5413 20.8403 48.5954 20.7721 48.6403 20.6881C48.6852 20.6041 48.7241 20.4958 48.7551 20.3616C48.7875 20.2272 48.8152 20.0593 48.8397 19.8576C48.8647 19.6553 48.8885 19.412 48.911 19.1243L48.9598 18.4638C48.965 18.3573 48.9953 18.2793 49.0514 18.2304C49.1089 18.1813 49.1814 18.1569 49.2712 18.1582H50.8404ZM61.3814 18.0908C61.6137 18.0915 61.8136 18.1245 61.982 18.1899C62.1509 18.2542 62.2895 18.3466 62.3976 18.4657C62.5065 18.586 62.5871 18.7275 62.6399 18.8928C62.6934 19.0576 62.719 19.242 62.719 19.4424C62.7177 19.5701 62.696 19.6679 62.6545 19.7373C62.6127 19.8068 62.5566 19.8544 62.4874 19.8821C62.4195 19.9086 62.3428 19.9212 62.2603 19.9198H60.5091C60.5097 20.111 60.5355 20.2743 60.5864 20.4085C60.6378 20.544 60.7083 20.6518 60.7968 20.7352C60.8866 20.8178 60.9895 20.878 61.1062 20.9162C61.2231 20.9539 61.3471 20.9724 61.4798 20.9719C61.5695 20.9719 61.6593 20.9633 61.7484 20.9473C61.8368 20.9322 61.9193 20.9117 61.9971 20.8866C62.075 20.8602 62.1416 20.8304 62.199 20.8006C62.224 20.7853 62.2459 20.7801 62.265 20.7867C62.2828 20.792 62.3007 20.8066 62.3151 20.8304L62.4446 21.0883C62.4589 21.1153 62.4644 21.1399 62.4584 21.1603C62.4519 21.1822 62.4347 21.198 62.4075 21.2105C62.3093 21.2688 62.2057 21.3144 62.0969 21.3481C61.9893 21.3805 61.8789 21.4043 61.7674 21.4174C61.6554 21.4307 61.545 21.4368 61.4369 21.4368C61.132 21.4381 60.8714 21.3798 60.6522 21.2621C60.4352 21.1451 60.2669 20.9646 60.1494 20.72C60.0327 20.4752 59.9726 20.1605 59.9719 19.7783C59.9726 19.5099 60.0082 19.2698 60.0789 19.0608C60.1488 18.852 60.247 18.6747 60.3744 18.5312C60.5018 18.3871 60.6503 18.2773 60.8211 18.2025C60.9921 18.1285 61.1795 18.0908 61.3814 18.0908ZM39.0806 16.894L39.1122 16.8952C39.13 16.9012 39.1417 16.9196 39.1503 16.9528L39.2052 17.1914C39.217 17.2311 39.217 17.2628 39.2065 17.2873C39.194 17.3117 39.1716 17.329 39.1379 17.3383C38.9823 17.3687 38.8377 17.3985 38.7037 17.4255C38.5704 17.4545 38.4477 17.4825 38.338 17.5095C38.1428 17.5571 37.9811 17.6114 37.8532 17.6716C37.7251 17.731 37.6214 17.8037 37.5457 17.8898C37.4684 17.9764 37.4097 18.0821 37.3682 18.2079C37.3259 18.3327 37.2935 18.4862 37.2698 18.6654C37.2731 18.6654 37.2749 18.6654 37.2763 18.6668C37.3872 18.6001 37.4968 18.5431 37.6123 18.4981C37.7271 18.4544 37.8407 18.4222 37.9534 18.4023C38.0663 18.3824 38.1725 18.3717 38.2714 18.3717C38.4627 18.3732 38.6285 18.4002 38.7697 18.453C38.9109 18.5074 39.031 18.582 39.1279 18.678C39.2256 18.7737 39.3028 18.8862 39.3615 19.0125C39.421 19.1394 39.4631 19.2778 39.4895 19.4251C39.516 19.5732 39.53 19.7254 39.5286 19.8834C39.5299 20.0215 39.5147 20.1638 39.485 20.3079C39.456 20.4521 39.4064 20.591 39.3385 20.7257C39.2699 20.8601 39.1788 20.9805 39.0639 21.0869C38.9485 21.194 38.806 21.2787 38.6363 21.3402C38.4667 21.4029 38.2661 21.436 38.0325 21.4367C37.8002 21.4359 37.603 21.4048 37.4407 21.346C37.2796 21.2871 37.1483 21.2059 37.0447 21.1027C36.9431 21.0001 36.8651 20.8832 36.8092 20.7508C36.7544 20.6187 36.716 20.4793 36.6949 20.3317C36.675 20.185 36.6645 20.0367 36.6659 19.8894C36.6646 19.5799 36.6737 19.2974 36.6923 19.0416C36.7108 18.7871 36.745 18.5563 36.7946 18.3526C36.8447 18.1477 36.918 17.967 37.0131 17.811C37.1073 17.6549 37.2308 17.522 37.3819 17.4103C37.5336 17.3005 37.7211 17.2112 37.9414 17.1425C38.0252 17.1181 38.1144 17.0943 38.2113 17.0731C38.3077 17.0519 38.4053 17.0315 38.5037 17.0122C38.6027 16.9925 38.6971 16.9732 38.7888 16.9561C38.8799 16.9376 38.9624 16.9196 39.0342 16.9038C39.0699 16.8938 39.0963 16.8905 39.1122 16.8952L39.0806 16.894ZM47.4132 16.894L47.4447 16.8952C47.4619 16.9012 47.4744 16.9196 47.4829 16.9528L47.5377 17.1914C47.5496 17.2311 47.5496 17.2628 47.5384 17.2873C47.5258 17.3117 47.5039 17.329 47.4703 17.3383L47.0361 17.4255C46.9029 17.4545 46.78 17.4825 46.6706 17.5095C46.4753 17.5571 46.3135 17.6114 46.1856 17.6716C46.0574 17.731 45.954 17.8037 45.878 17.8898C45.8008 17.9764 45.7415 18.0821 45.7005 18.2079C45.6583 18.3327 45.6253 18.4862 45.6021 18.6654C45.6055 18.6654 45.6074 18.6654 45.6081 18.6668C45.6094 18.6668 45.6115 18.6687 45.6147 18.672C45.7196 18.6001 45.8292 18.5431 45.9446 18.4981C46.0595 18.4544 46.173 18.4222 46.2858 18.4023C46.3986 18.3824 46.5049 18.3717 46.6038 18.3717C46.7947 18.3732 46.961 18.4002 47.1022 18.453C47.2434 18.5074 47.3635 18.582 47.4604 18.678C47.5575 18.7737 47.6353 18.8862 47.694 19.0125C47.7535 19.1394 47.7958 19.2778 47.8222 19.4251C47.8486 19.5732 47.8625 19.7254 47.8611 19.8834C47.8624 20.0215 47.8465 20.1638 47.8175 20.3079C47.7878 20.4521 47.7389 20.591 47.671 20.7257C47.6024 20.8601 47.5113 20.9805 47.3959 21.0869C47.281 21.194 47.1385 21.2787 46.9683 21.3402C46.7994 21.4029 46.5987 21.436 46.365 21.4367C46.1329 21.4359 45.9348 21.4048 45.7732 21.346C45.6116 21.2871 45.4808 21.2059 45.3772 21.1027C45.2756 21.0001 45.1978 20.8832 45.1417 20.7508C45.0869 20.6187 45.0485 20.4793 45.0276 20.3317C45.0077 20.185 44.9971 20.0367 44.9978 19.8894C44.9971 19.5799 45.0064 19.2974 45.0242 19.0416C45.0427 18.7871 45.077 18.5563 45.1271 18.3526C45.1772 18.1477 45.2505 17.967 45.3448 17.811C45.4393 17.6549 45.5627 17.522 45.7144 17.4103C45.8661 17.3005 46.0536 17.2112 46.2741 17.1425C46.3572 17.1181 46.4469 17.0943 46.5438 17.0731C46.6396 17.0519 46.738 17.0315 46.8362 17.0122C46.9352 16.9925 47.0296 16.9732 47.1213 16.9561C47.2124 16.9376 47.2949 16.9196 47.3669 16.9038C47.4024 16.8938 47.4288 16.8905 47.4447 16.8952L47.4132 16.894ZM34.8038 18.0908C35.0354 18.0915 35.2353 18.1245 35.4043 18.1899C35.5732 18.2542 35.7118 18.3466 35.8207 18.4657C35.929 18.586 36.0094 18.7275 36.0621 18.8928C36.1149 19.0576 36.1407 19.242 36.1407 19.4424C36.1399 19.5701 36.1183 19.6679 36.0767 19.7373C36.0352 19.8068 35.9791 19.8544 35.9097 19.8821C35.8418 19.9086 35.7653 19.9212 35.6833 19.9198H33.9314C33.9327 20.111 33.9578 20.2743 34.0086 20.4085C34.0601 20.544 34.1301 20.6518 34.2191 20.7352C34.3089 20.8178 34.4125 20.878 34.5287 20.9162C34.6454 20.9539 34.7694 20.9724 34.9015 20.9719C34.9926 20.9719 35.0816 20.9633 35.1706 20.9473C35.2584 20.9322 35.3408 20.9117 35.4194 20.8866C35.4972 20.8602 35.564 20.8304 35.622 20.8006C35.6458 20.7853 35.6676 20.7801 35.6873 20.7867C35.7052 20.792 35.7223 20.8066 35.7382 20.8304L35.8661 21.0883C35.8814 21.1153 35.8859 21.1399 35.8807 21.1603C35.8742 21.1822 35.8569 21.198 35.8298 21.2105C35.7316 21.2688 35.628 21.3144 35.5191 21.3481C35.4116 21.3805 35.3014 21.4043 35.1897 21.4174C35.0777 21.4307 34.9681 21.4368 34.8592 21.4368C34.555 21.4381 34.293 21.3798 34.0739 21.2621C33.8567 21.1451 33.6886 20.9646 33.5724 20.72C33.455 20.4752 33.395 20.1605 33.3936 19.7783C33.3949 19.5099 33.4305 19.2698 33.5004 19.0608C33.5711 18.852 33.6693 18.6747 33.7967 18.5312C33.9241 18.3871 34.0719 18.2773 34.2436 18.2025C34.4144 18.1285 34.6012 18.0908 34.8038 18.0908ZM41.4884 18.0908C41.72 18.0915 41.9194 18.1245 42.0883 18.1899C42.2572 18.2542 42.3958 18.3466 42.5047 18.4657C42.6136 18.586 42.6934 18.7275 42.7469 18.8928C42.7997 19.0576 42.8247 19.242 42.8247 19.4424C42.824 19.5701 42.8023 19.6679 42.7608 19.7373C42.7191 19.8068 42.6631 19.8544 42.5945 19.8821C42.5258 19.9086 42.4499 19.9212 42.3674 19.9198H40.6154C40.616 20.111 40.6418 20.2743 40.6927 20.4085C40.7447 20.544 40.8146 20.6518 40.9031 20.7352C40.9929 20.8178 41.0965 20.878 41.2125 20.9162C41.33 20.9539 41.4534 20.9724 41.5855 20.9719C41.6766 20.9719 41.7662 20.9633 41.8539 20.9473C41.9431 20.9322 42.0249 20.9117 42.1035 20.8866C42.1813 20.8602 42.2481 20.8304 42.306 20.8006C42.3306 20.7853 42.3515 20.7801 42.3713 20.7867C42.3893 20.792 42.4063 20.8066 42.4222 20.8304L42.5501 21.0883C42.5661 21.1153 42.57 21.1399 42.5647 21.1603C42.5588 21.1822 42.541 21.198 42.5133 21.2105C42.4157 21.2688 42.312 21.3144 42.2037 21.3481C42.0956 21.3805 41.986 21.4043 41.8737 21.4174C41.7617 21.4307 41.6521 21.4368 41.5432 21.4368C41.2391 21.4381 40.977 21.3798 40.7585 21.2621C40.5408 21.1451 40.3726 20.9646 40.2565 20.72C40.139 20.4752 40.0789 20.1605 40.0782 19.7783C40.079 19.5099 40.1145 19.2698 40.1845 19.0608C40.2552 18.852 40.3541 18.6747 40.4807 18.5312C40.6081 18.3871 40.7567 18.2773 40.9275 18.2025C41.0984 18.1285 41.2858 18.0908 41.4884 18.0908ZM55.7718 18.1582C55.7929 18.1569 55.8127 18.1609 55.8297 18.1688C55.8477 18.1781 55.8602 18.1986 55.87 18.231L56.1075 18.9961C56.1479 19.1191 56.196 19.2117 56.2555 19.2763C56.3155 19.3393 56.3821 19.3822 56.4567 19.4047C56.5312 19.4272 56.6105 19.4371 56.6936 19.4364H57.1027V18.2495C57.1027 18.2111 57.11 18.1854 57.1238 18.1742C57.1397 18.1622 57.1655 18.1569 57.2003 18.1582H57.5363C57.5699 18.1569 57.5944 18.1622 57.6101 18.1742C57.6253 18.1854 57.6339 18.2111 57.6339 18.2495V19.4364H58.043C58.1255 19.4371 58.2035 19.4272 58.2787 19.4047C58.3539 19.3822 58.4231 19.3393 58.4846 19.2763C58.5452 19.2117 58.5953 19.1191 58.635 18.9961L58.8666 18.231C58.8759 18.1986 58.889 18.1781 58.9062 18.1688C58.924 18.1609 58.9431 18.1569 58.9642 18.1582H59.2942C59.3299 18.159 59.3503 18.1703 59.3576 18.1907C59.3642 18.2111 59.3655 18.2336 59.3615 18.2561L59.1358 19.0576C59.1028 19.1897 59.0553 19.3048 58.9919 19.4034C58.9287 19.5013 58.8449 19.5766 58.7387 19.6263C58.8376 19.6713 58.9207 19.7148 58.9828 19.7697C59.0449 19.8238 59.0942 19.8881 59.1313 19.9609C59.1681 20.0349 59.1999 20.1175 59.2276 20.2075L59.5325 21.2654C59.5351 21.2801 59.5369 21.2952 59.5383 21.3117C59.539 21.3277 59.5338 21.3402 59.5245 21.352C59.5145 21.3633 59.4949 21.3685 59.4652 21.3698H59.1049C59.089 21.3706 59.0712 21.3685 59.052 21.3614C59.0329 21.3541 59.017 21.3348 59.0073 21.3018L58.7076 20.2934C58.6773 20.189 58.6298 20.1063 58.5677 20.0435C58.5056 19.98 58.4351 19.935 58.3559 19.9065C58.2766 19.8782 58.1941 19.8644 58.1098 19.8649H57.6339V21.278C57.6339 21.3164 57.6253 21.3421 57.6101 21.3533C57.5944 21.3653 57.5699 21.3705 57.5363 21.3698H57.2003C57.1655 21.3706 57.1397 21.3653 57.1238 21.3533C57.11 21.3421 57.1027 21.3164 57.1027 21.278V19.8649H56.6262C56.5419 19.8643 56.4594 19.8782 56.3801 19.9065C56.3009 19.935 56.231 19.98 56.1691 20.0435C56.1062 20.1063 56.06 20.189 56.0284 20.2934L55.7295 21.3018C55.719 21.3348 55.7052 21.3541 55.6853 21.3614C55.6661 21.3685 55.6477 21.3705 55.6311 21.3698H55.2776C55.2478 21.3685 55.2267 21.3633 55.2155 21.352C55.2035 21.3402 55.197 21.3277 55.1956 21.3117C55.1951 21.2952 55.1956 21.2801 55.1982 21.2654L55.5097 20.2075C55.5348 20.1194 55.5658 20.0381 55.6016 19.9648C55.6397 19.8913 55.6893 19.8267 55.7527 19.771C55.8159 19.7161 55.8991 19.6713 56.0041 19.6381C55.8892 19.5766 55.8047 19.5013 55.742 19.4034C55.6807 19.3048 55.6331 19.1897 55.6008 19.0576L55.3692 18.2561C55.3653 18.2336 55.3672 18.2111 55.3765 18.1907C55.3844 18.1703 55.4068 18.1589 55.4424 18.1582H55.7718ZM52.3595 18.1457C52.395 18.1449 52.4209 18.1509 52.436 18.1648C52.4499 18.1794 52.4577 18.2079 52.4577 18.2495V20.6115H52.4822C52.5462 20.5084 52.607 20.4111 52.6623 20.3206C52.7198 20.2293 52.7764 20.14 52.8339 20.0514C52.8907 19.9627 52.9527 19.8696 53.0187 19.7731L53.9412 18.3474C53.9663 18.3003 53.9914 18.264 54.0151 18.2349C54.0389 18.2079 54.0686 18.1873 54.1023 18.1761C54.1358 18.1643 54.1794 18.1582 54.2336 18.1582H54.3926C54.4639 18.1582 54.5226 18.1781 54.5675 18.2179C54.6116 18.2587 54.6363 18.3202 54.6367 18.4023V21.284C54.638 21.3191 54.6307 21.3434 54.615 21.3541C54.6012 21.3653 54.5754 21.3705 54.5391 21.3698H54.2031C54.1702 21.3706 54.1451 21.3653 54.1287 21.3541C54.1141 21.3434 54.1055 21.3191 54.1055 21.284V18.9472H54.0686C54.0065 19.0417 53.9499 19.1316 53.8982 19.2162C53.8468 19.2996 53.7953 19.3843 53.7431 19.4688C53.6904 19.5549 53.6324 19.6447 53.5684 19.7427L52.6161 21.1861C52.5864 21.233 52.5568 21.2694 52.5284 21.2958C52.5013 21.323 52.4697 21.3421 52.4373 21.3533C52.4037 21.364 52.3627 21.3698 52.3172 21.3698H52.1768C52.1027 21.3698 52.0434 21.3507 51.9992 21.3125C51.9557 21.2741 51.9331 21.2132 51.9324 21.1312V18.2435C51.9324 18.2046 51.9405 18.1781 51.9557 18.1648C51.9721 18.1509 51.9964 18.145 52.0301 18.1457H52.3595ZM32.9482 17.0878C32.9838 17.0878 33.007 17.0957 33.0187 17.1109C33.0294 17.1273 33.0347 17.1519 33.0333 17.1849V17.4852C33.0346 17.5208 33.0294 17.5459 33.0187 17.5611C33.007 17.5757 32.9838 17.583 32.9482 17.583H31.7213V21.2654C31.7213 21.3104 31.7129 21.3389 31.6957 21.352C31.6785 21.3653 31.6516 21.3705 31.6112 21.3698H31.2634C31.224 21.3706 31.1942 21.3653 31.1757 21.352C31.1572 21.3389 31.1473 21.3104 31.1473 21.2654V17.583H29.9568C29.9213 17.583 29.8981 17.5757 29.8869 17.5611C29.8757 17.5459 29.8704 17.5208 29.8717 17.4852V17.1849C29.8704 17.1519 29.8757 17.1273 29.8869 17.1109C29.8981 17.0957 29.9213 17.0878 29.9568 17.0878H32.9482ZM15.6419 5.82681L15.3767 8.36061L13.5843 10.1567C13.4788 10.2624 13.3059 10.2624 13.201 10.1567L9.55381 6.50328L11.1619 8.52668V10.9938C11.1619 11.1439 11.0398 11.2661 10.8907 11.2661H5.73378L8.20758 11.5015L10.0329 13.3313C10.1384 13.4365 10.1384 13.6102 10.0329 13.7154L6.38621 17.3695L8.30785 15.7984H10.9126C11.0609 15.7984 11.1836 15.9206 11.1836 16.0702V21.2371L11.507 18.6477L13.2472 16.9052C13.3522 16.7988 13.525 16.7988 13.6305 16.9052L17.2764 20.558L15.6518 18.4883V16.0616C15.6518 15.9122 15.7745 15.7898 15.9236 15.7898H21.0802L18.5725 15.5246L16.7842 13.7326C16.6785 13.6275 16.6785 13.4535 16.7842 13.3484L20.4307 9.69444L18.4801 11.2655H15.9124C15.7633 11.2655 15.6419 11.1431 15.6419 10.9938V5.82681ZM46.5241 18.8062C46.4231 18.8062 46.3161 18.8195 46.2046 18.846C46.0924 18.8732 45.9804 18.9114 45.8687 18.9616C45.7572 19.0132 45.6523 19.0754 45.5541 19.1489C45.5434 19.2724 45.5369 19.3783 45.5303 19.4683C45.5251 19.5594 45.5217 19.6388 45.5196 19.7121L45.5165 19.9258C45.5157 20.0812 45.5303 20.224 45.5599 20.3543C45.5896 20.4838 45.6371 20.5963 45.7039 20.6928C45.7705 20.7888 45.8608 20.8628 45.9731 20.9162C46.0859 20.9693 46.2245 20.995 46.3895 20.9957C46.5339 20.9949 46.6594 20.9725 46.7656 20.9301C46.8711 20.8872 46.9596 20.8283 47.0309 20.7537C47.1021 20.6808 47.1582 20.5955 47.2005 20.5016C47.2421 20.4079 47.2724 20.3099 47.2914 20.2088C47.3094 20.1063 47.3185 20.0059 47.3178 19.908C47.3186 19.767 47.306 19.6315 47.2823 19.5005C47.2578 19.3702 47.2157 19.252 47.1569 19.1481C47.0982 19.0437 47.017 18.9611 46.9134 18.9001C46.8098 18.8386 46.6805 18.8076 46.5241 18.8062ZM38.1923 18.8062C38.0908 18.8062 37.9845 18.8195 37.8723 18.846C37.76 18.8732 37.6485 18.9114 37.5363 18.9616C37.4248 19.0132 37.3199 19.0754 37.2215 19.1489C37.211 19.2724 37.2045 19.3783 37.1978 19.4683C37.1925 19.5594 37.1899 19.6388 37.188 19.7121C37.1851 19.7843 37.1847 19.8557 37.1847 19.9258C37.1833 20.0812 37.1978 20.224 37.2275 20.3543C37.2572 20.4838 37.3048 20.5963 37.3713 20.6928C37.4381 20.7888 37.5285 20.8628 37.6407 20.9162C37.7535 20.9693 37.8921 20.995 38.0576 20.9957C38.2015 20.9949 38.3276 20.9725 38.4331 20.9301C38.5388 20.8872 38.6272 20.8283 38.6985 20.7537C38.7698 20.6808 38.8259 20.5955 38.8687 20.5016C38.9102 20.4079 38.9405 20.3099 38.959 20.2088C38.9768 20.1063 38.9868 20.0059 38.9854 19.908C38.9867 19.767 38.9742 19.6315 38.9499 19.5005C38.9254 19.3702 38.8831 19.252 38.8251 19.1481C38.7656 19.0437 38.6846 18.9611 38.581 18.9001C38.4774 18.8386 38.3487 18.8076 38.1923 18.8062ZM61.3881 18.5371C61.2534 18.5378 61.1346 18.565 61.031 18.6158C60.9281 18.6668 60.8396 18.7369 60.7678 18.8255C60.6952 18.9153 60.6391 19.0165 60.5995 19.1303C60.5585 19.2447 60.5355 19.365 60.5269 19.4913H62.2182C62.2196 19.3618 62.207 19.2394 62.1812 19.1256C62.1561 19.0113 62.1126 18.9095 62.0506 18.8214C61.988 18.7329 61.9034 18.6642 61.7959 18.6139C61.6876 18.5637 61.5518 18.5378 61.3881 18.5371ZM34.8104 18.5371C34.6757 18.5378 34.5569 18.565 34.4533 18.6158C34.3498 18.6668 34.2619 18.7369 34.1893 18.8255C34.1175 18.9153 34.0614 19.0165 34.0212 19.1303C33.981 19.2447 33.9578 19.365 33.9492 19.4913H35.6398C35.6411 19.3618 35.6293 19.2394 35.6035 19.1256C35.5784 19.0113 35.5343 18.9095 35.4729 18.8214C35.4102 18.7329 35.3257 18.6642 35.2182 18.6139C35.1106 18.5637 34.974 18.5378 34.8104 18.5371ZM41.4944 18.5371C41.3597 18.5378 41.241 18.565 41.1373 18.6158C41.0344 18.6668 40.9454 18.7369 40.8734 18.8255C40.8016 18.9153 40.7454 19.0165 40.7058 19.1303C40.6648 19.2447 40.6418 19.365 40.634 19.4913H42.3238C42.3251 19.3618 42.3133 19.2394 42.2883 19.1256C42.2625 19.0113 42.2183 18.9095 42.1562 18.8214C42.0948 18.7329 42.0105 18.6642 41.9022 18.6139C41.7946 18.5637 41.6586 18.5378 41.4944 18.5371ZM53.2028 5.53234C53.2933 5.53234 53.4008 5.60302 53.4008 5.73065V8.77241H54.3399C54.4573 8.77449 54.5826 8.76454 54.7153 8.74467C54.8453 8.72275 54.9758 8.67721 55.1032 8.60784C55.2319 8.5383 55.3488 8.43129 55.4536 8.28582C55.5585 8.14301 55.6436 7.94844 55.7078 7.70384L56.2422 5.69899C56.262 5.62362 56.2957 5.57528 56.3432 5.55821C56.3913 5.53834 56.4362 5.53026 56.4805 5.53234H57.7791C57.9349 5.53234 57.9983 5.67386 57.9777 5.76832L57.4313 7.89501C57.3541 8.23279 57.2287 8.52649 57.0585 8.77449C56.8909 9.02246 56.6764 9.22547 56.421 9.3801V9.43969C56.6262 9.51111 56.7972 9.59228 56.9319 9.68356C57.0664 9.77692 57.1773 9.88205 57.2605 9.99978C57.3462 10.116 57.4148 10.2478 57.4702 10.3945C57.5245 10.5392 57.5759 10.7019 57.6214 10.8811L58.3578 13.6451C58.3776 13.7233 58.3254 13.8912 58.1513 13.8831H56.7721C56.6956 13.8831 56.6223 13.8455 56.5821 13.7397L55.8496 11.155C55.7684 10.8832 55.6635 10.6742 55.5395 10.5293C55.4121 10.3846 55.2538 10.2854 55.0638 10.2318C54.8737 10.1756 54.6393 10.1505 54.3636 10.1544H53.4008V13.6921C53.4008 13.8057 53.3011 13.8831 53.187 13.8831H51.8077C51.6983 13.8831 51.5939 13.8025 51.5939 13.6921V5.72278C51.5939 5.61764 51.6904 5.53234 51.8077 5.53234H53.2028ZM39.1643 5.51638L42.5165 5.53234C42.6572 5.53234 42.7428 5.61969 42.7428 5.73403V6.89127C42.7428 6.97657 42.6822 7.09277 42.5318 7.09277H39.312C39.0382 7.09277 38.7241 7.30046 38.7241 7.67947V8.57017H42.1364C42.281 8.57017 42.3622 8.65471 42.3622 8.77186V9.88788C42.3622 9.96003 42.3008 10.083 42.157 10.083H38.7241V11.6714C38.7241 12.1731 39.1149 12.3101 39.312 12.3101H42.541C42.6809 12.3101 42.7422 12.4311 42.7422 12.5124V13.6809C42.7396 13.7939 42.659 13.8831 42.5376 13.8831H39.1168C37.9402 13.8831 36.9174 12.9032 36.9174 11.6912V7.73627C36.9174 6.56719 37.9046 5.5106 39.1643 5.51638ZM79.4782 5.53234C79.5917 5.53234 79.6682 5.63226 79.6682 5.74659V6.87797C79.6682 6.98782 79.5884 7.09277 79.4782 7.09277H77.2788V13.6921C77.2788 13.8057 77.1791 13.8831 77.065 13.8831H75.6859C75.5764 13.8831 75.472 13.8025 75.472 13.6921V7.09277H73.3084C73.198 7.09277 73.1183 6.98782 73.1183 6.87797V5.74659C73.1183 5.63226 73.1954 5.53234 73.3084 5.53234H79.4782ZM62.9137 5.53234C63.3335 5.53234 63.5069 5.82325 63.6238 6.18558L66.0892 13.6226C66.1242 13.7641 66.0317 13.8818 65.8911 13.8832H64.3873C64.2976 13.8832 64.2223 13.8342 64.182 13.6921L63.7188 12.1435H60.996L60.5329 13.6563C60.5243 13.6895 60.5104 13.7311 60.4966 13.7596C60.4358 13.8891 60.3368 13.8832 60.2914 13.8832H58.8449C58.7353 13.8832 58.5974 13.7787 58.6522 13.6134L61.1155 6.18558C61.167 6.01313 61.2304 5.88079 61.3035 5.78426C61.4481 5.59309 61.6335 5.52109 61.846 5.53497L62.9137 5.53234ZM70.2313 5.53234C70.542 5.53497 70.8574 5.5614 71.1466 5.65007C71.8525 5.86561 72.4511 6.35763 72.7784 7.09277C72.9176 7.40505 73.0126 7.76211 73.0126 8.14093C73.0345 9.72067 71.7543 10.8408 70.3882 10.8408H68.4126V13.6325C68.4126 13.6895 68.4086 13.7358 68.3881 13.7754C68.3559 13.8395 68.2865 13.8831 68.2139 13.8831H66.8104C66.6917 13.8826 66.605 13.7965 66.605 13.6809V6.25905C66.6045 6.20486 66.6097 6.15257 66.6118 6.10423C66.6262 5.75389 66.8948 5.53234 67.2149 5.53234H70.2313ZM35.269 5.53227C35.4314 5.52897 35.4854 5.64875 35.4828 5.79419V6.85473C35.4854 6.9865 35.4043 7.08358 35.269 7.08097H31.6785V8.57017H33.7823C35.0988 8.57017 36.1334 9.47062 36.4059 10.7812C36.4435 10.9619 36.4363 11.1252 36.4336 11.262C36.3835 12.8642 35.1239 13.9367 33.5803 13.8831H30.4583C30.1258 13.8831 29.8712 13.6181 29.8712 13.2953V6.12014C29.8712 5.88998 30.0143 5.53227 30.5019 5.53227H35.269ZM49.875 5.53243C50.2432 5.53243 50.5045 5.80817 50.5032 6.121V13.6684C50.5032 13.7841 50.4313 13.8832 50.2881 13.8832H48.9102C48.7922 13.8932 48.6964 13.792 48.6964 13.6815V7.10488H46.3782L46.3307 7.93878C46.291 8.52659 46.2516 9.0681 46.2119 9.56668C46.1697 10.0666 46.1182 10.5236 46.0555 10.9388C45.9916 11.3534 45.9044 11.7309 45.7935 12.0662C45.6846 12.4021 45.5322 12.6977 45.358 12.9616C44.803 13.8026 44.159 13.88 43.4246 13.8827L43.3375 13.8831C43.2221 13.8831 43.1362 13.796 43.1362 13.6676V12.5051C43.1362 12.3842 43.2477 12.3094 43.3362 12.3101H43.3737C44.3483 12.3101 44.4243 10.5029 44.4903 9.74973C44.5318 9.29275 44.5715 8.75855 44.6064 8.14093L44.7133 6.33056C44.7187 6.24452 44.7364 6.16655 44.7396 6.09457C44.7555 5.83928 44.9628 5.53243 45.3139 5.53243H49.875ZM33.414 10.0824H31.6785V12.2982H33.4022C34.058 12.2982 34.5754 11.8241 34.5556 11.1668C34.5352 10.5096 34.0264 10.0824 33.414 10.0824ZM62.399 7.45792H62.3284L61.8763 9.15724L61.4249 10.6663H63.2912L62.8391 9.15724L62.399 7.45792ZM69.9573 7.0928H68.4126V9.27834L70.0327 9.28018C70.6602 9.28018 71.1229 8.76904 71.1234 8.18648C71.1247 7.60339 70.6582 7.07106 69.9573 7.0928Z" fill="#767986"/>
</svg>
