<svg width="98" height="24" viewBox="0 0 98 24" fill="none" xmlns="http://www.w3.org/2000/svg">
<path d="M57.6613 9.20338C57.9881 9.20338 58.2763 9.41879 58.3702 9.73255L59.869 14.7476L63.4052 9.52889C63.543 9.32572 63.7724 9.20362 64.0175 9.20362H66.5811C66.9392 9.20362 67.1499 9.60709 66.9459 9.9019L58.4204 22.2313C58.2821 22.4314 58.0549 22.5506 57.8122 22.5506H55.2512C54.8907 22.5506 54.6803 22.143 54.8888 21.8482L57.5438 18.0946L54.721 9.79204C54.6231 9.50323 54.8371 9.20338 55.1413 9.20338H57.6613ZM46.7049 8.96326C47.9342 8.96326 49.1651 9.23169 49.7176 10.035L49.8959 10.2939L50.008 9.57927C50.0422 9.3629 50.2282 9.20362 50.4468 9.20362H52.9969C53.2698 9.20362 53.4781 9.44757 53.4355 9.71792L52.0566 18.4669C51.9997 18.8272 51.6899 19.0925 51.3258 19.0925H49.0289C48.7557 19.0925 48.5475 18.8481 48.5903 18.578L48.7043 17.8675C48.7043 17.8675 47.4444 19.3298 45.1733 19.3298C43.85 19.3298 42.7393 18.9479 41.961 18.0304C41.1139 17.0318 40.7677 15.6009 41.0116 14.1038C41.4801 11.103 43.8874 8.96326 46.7049 8.96326ZM84.6944 8.96326C85.9236 8.96326 87.1546 9.23169 87.7071 10.035L87.8854 10.2939L87.9977 9.57927C88.0317 9.3629 88.2177 9.20362 88.4362 9.20362H90.9864C91.2593 9.20362 91.4678 9.44757 91.4252 9.71792L90.0463 18.4669C89.9894 18.8272 89.6796 19.0925 89.3155 19.0925H87.0186C86.7454 19.0925 86.5372 18.8481 86.58 18.578L86.694 17.8675C86.694 17.8675 85.4341 19.3298 83.163 19.3298C81.8397 19.3298 80.729 18.9479 79.9507 18.0304C79.1036 17.0318 78.7574 15.6009 79.0013 14.1038C79.4696 11.103 81.8766 8.96326 84.6944 8.96326ZM75.0666 4.26648C76.8485 4.26648 78.191 4.73808 78.9484 5.63018C79.6376 6.44144 79.8662 7.60028 79.628 9.07505C79.0988 12.447 77.074 14.1484 73.5659 14.1484H71.8803C71.516 14.1484 71.206 14.414 71.1493 14.7745L70.5384 18.6543C70.4989 18.9069 70.2815 19.0925 70.0268 19.0925H67.2937C67.0208 19.0925 66.8128 18.8483 66.8552 18.5782L69.0092 4.89256C69.0659 4.53202 69.3759 4.26648 69.74 4.26648H75.0666ZM37.0771 4.26648C38.8589 4.26648 40.2016 4.73808 40.9595 5.63018C41.6484 6.44144 41.877 7.60028 41.6388 9.07505C41.1095 12.447 39.0848 14.1484 35.5764 14.1484H33.8909C33.5268 14.1484 33.2168 14.414 33.16 14.7745L32.5788 18.4667C32.5218 18.8272 32.2118 19.0925 31.8477 19.0925H29.3045C29.0316 19.0925 28.8233 18.8483 28.8657 18.5782L31.0197 4.89256C31.0767 4.53202 31.3867 4.26648 31.7508 4.26648H37.0771ZM96.8918 4.26672C97.1647 4.26672 97.3729 4.51091 97.3303 4.78101L95.1749 18.4667C95.1179 18.8272 94.8079 19.0925 94.4438 19.0925H92.2451C91.9724 19.0925 91.7642 18.8483 91.8065 18.5785L93.9928 4.64237C94.0268 4.426 94.2128 4.26648 94.4316 4.26672H96.8918ZM47.3099 11.6746C45.8568 11.6746 44.6812 12.6866 44.4516 14.1338C44.3319 14.8438 44.4739 15.4814 44.8511 15.9288C45.2318 16.3802 45.824 16.6187 46.5637 16.6187C48.0393 16.6187 49.1962 15.6383 49.4425 14.1782C49.5543 13.4715 49.4009 12.8298 49.0102 12.371C48.6222 11.9152 48.034 11.6746 47.3099 11.6746ZM85.2993 11.6746C83.8463 11.6746 82.6711 12.6866 82.4413 14.1338C82.3216 14.8438 82.4638 15.4814 82.8408 15.9288C83.2217 16.3802 83.8137 16.6187 84.5536 16.6187C86.0292 16.6187 87.1859 15.6383 87.4322 14.1782C87.5438 13.4715 87.3903 12.8298 86.9999 12.371C86.6116 11.9152 86.0235 11.6746 85.2993 11.6746ZM73.3237 7.22831L72.7163 7.228C72.498 7.228 72.312 7.38727 72.2777 7.60364L71.7142 11.1807L72.702 11.1805C74.0549 11.1771 75.4029 11.0974 75.6813 9.26479C75.7871 8.59217 75.7026 8.10546 75.4223 7.77683C74.9543 7.228 74.0461 7.228 73.0847 7.228L73.3237 7.22831ZM35.3342 7.22831L34.7268 7.228C34.5083 7.228 34.3225 7.38727 34.2883 7.60364L33.7248 11.1807L34.7127 11.1805C36.0653 11.1771 37.4134 11.0974 37.6918 9.26479C37.7977 8.59217 37.7129 8.10546 37.4328 7.77683C36.9648 7.228 36.0566 7.228 35.0952 7.228L35.3342 7.22831Z" fill="#767986"/>
<path opacity="0.8" d="M17.4261 2.22552C16.3373 0.982477 14.3706 0.449951 11.8541 0.449951H4.54956C4.03536 0.449951 3.59729 0.824878 3.51733 1.33414L0.475466 20.6615C0.41562 21.0429 0.709824 21.3876 1.09476 21.3876H5.60429L5.29309 23.3654C5.24066 23.699 5.49776 24.0006 5.83482 24.0006H9.63601C10.0858 24.0006 10.4688 23.6726 10.539 23.2272L10.5763 23.0334L11.2923 18.4834L11.3385 18.232C11.4087 17.7868 11.7917 17.4584 12.2415 17.4584H12.81C16.4925 17.4584 19.3759 15.9594 20.2183 11.6239C20.5704 9.81233 20.3882 8.30015 19.4573 7.23702C19.176 6.91606 18.8255 6.65028 18.4169 6.43343C18.7037 4.60125 18.415 3.35486 17.4261 2.22552Z" fill="#767986"/>
<path opacity="0.8" d="M17.4261 2.22552C16.3373 0.982477 14.3706 0.449951 11.8541 0.449951H4.54956C4.03536 0.449951 3.59729 0.824878 3.51733 1.33414L0.475466 20.6615C0.41562 21.0429 0.709824 21.3876 1.09476 21.3876H5.60429L6.73706 14.1896L6.70187 14.4153C6.78206 13.9063 7.21607 13.5311 7.7305 13.5311H9.87396C14.0833 13.5311 17.3794 11.8175 18.3422 6.86161C18.3709 6.71529 18.3951 6.57304 18.4169 6.43343C18.7037 4.60125 18.415 3.35486 17.4261 2.22552Z" fill="#767986"/>
<path d="M7.95409 6.45766C8.00221 6.15158 8.19851 5.90067 8.46255 5.77401C8.58248 5.71644 8.71677 5.6843 8.85729 5.6843H14.5831C15.2616 5.6843 15.894 5.72891 16.4721 5.82223C16.6373 5.84885 16.7982 5.87956 16.9545 5.91434C17.1106 5.94912 17.2623 5.98774 17.4091 6.03092C17.4826 6.05227 17.5546 6.07506 17.6257 6.09856C17.9096 6.19308 18.1742 6.30438 18.4174 6.43367C18.7042 4.60149 18.4155 3.3551 17.4266 2.22576C16.3374 0.982477 14.3706 0.449951 11.8542 0.449951H4.54956C4.03536 0.449951 3.59729 0.824878 3.51733 1.33414L0.475466 20.6615C0.41562 21.0429 0.709824 21.3876 1.09476 21.3876H5.60429L6.73706 14.1896L7.95409 6.45766Z" fill="#767986"/>
</svg>
