<svg width="42" height="29" viewBox="0 0 42 29" fill="none" xmlns="http://www.w3.org/2000/svg">
<path d="M3.71892 19.758C4.42562 18.9358 5.51477 18.6558 6.39607 19.0623C7.11109 19.3876 7.49354 20.038 7.60994 20.824C7.85105 22.4592 7.50185 23.9498 6.4127 25.1604C5.53972 26.1361 4.45056 26.4794 3.21176 26.1903C3.13693 26.1723 3.05379 26.1542 2.98727 26.109C2.81268 26.0006 2.74616 26.0096 2.70459 26.2626C2.57157 27.1118 2.39697 27.952 2.25563 28.8012C2.23069 28.9458 2.18912 29 2.04778 29C1.4159 28.9909 0.775713 28.9909 0.143839 29C-0.00581587 29 -0.01413 28.9548 0.0108124 28.8103L0.742457 24.6635C1.07502 22.8296 1.39927 20.9956 1.59881 19.1436C1.61544 19.0081 1.65701 18.972 1.77341 18.972C2.33046 18.981 2.87919 18.981 3.43624 18.972C3.58589 18.9629 3.61915 19.0352 3.60252 19.1798C3.56926 19.4147 3.55264 19.6495 3.52769 19.9025C3.64409 19.9025 3.66903 19.8122 3.71892 19.758ZM20.6715 19.0081C20.8544 19.0533 20.9292 19.1165 20.8544 19.3424C20.7047 19.8031 20.58 20.2729 20.4553 20.7427C20.4137 20.8872 20.3638 20.9234 20.2225 20.8872C19.84 20.7788 19.4576 20.7788 19.0751 20.8782C18.0442 21.1583 17.3957 22.3598 17.6617 23.4801C17.7864 23.986 18.2022 24.3293 18.7093 24.3473C19.0751 24.3564 19.4326 24.3022 19.7818 24.1576C19.9066 24.1034 19.9481 24.1305 19.9398 24.2841C19.9315 24.5371 19.9398 24.79 19.9398 25.043C19.9315 25.034 19.9232 25.034 19.9232 25.034C19.9232 25.2598 19.9066 25.4766 19.9315 25.7025C19.9481 25.8922 19.8733 25.9735 19.7236 26.0277C19.0253 26.2807 18.3186 26.3439 17.5952 26.2445C17.0132 26.1723 16.4811 25.9374 16.0488 25.4947C15.4003 24.8262 15.2174 23.9769 15.2589 23.0464C15.3587 20.9505 16.7139 19.3424 18.6761 18.972C19.3412 18.8455 20.0063 18.8455 20.6715 19.0081ZM12.0247 18.9268C12.9809 18.7913 13.9287 18.9268 14.8599 19.1798C15.076 19.243 15.101 19.3333 15.0677 19.5231C14.8599 20.6885 14.652 21.8629 14.4525 23.0374C14.2945 23.9769 14.2031 24.9255 14.2031 25.8741C14.2031 26.0729 14.1532 26.1361 13.9703 26.1271C13.4298 26.1181 12.8811 26.1181 12.3324 26.1271C12.191 26.1361 12.1495 26.091 12.1578 25.9283C12.1744 25.6031 12.2243 25.2688 12.191 24.8894C12.0164 25.1243 11.8834 25.3321 11.7254 25.5128C10.9605 26.3981 9.68847 26.5517 8.87369 25.838C8.34158 25.3772 8.10879 24.7449 8.08384 24.0312C8.01733 22.4411 8.46629 21.0679 9.59702 20.0109C10.2871 19.3605 11.1268 19.0443 12.0247 18.9268ZM29.7754 19.4056C30.7233 18.8274 31.7376 18.6738 32.7852 19.0714C33.6249 19.3966 34.0988 20.1284 34.1071 21.0499C34.1237 22.0707 33.7163 22.7393 32.835 23.1277C32.1283 23.4439 31.3884 23.5162 30.6318 23.5343H30.0664C29.95 23.5343 29.9251 23.5885 29.975 23.6788C30.0498 23.8866 30.1745 24.0402 30.3574 24.1486C30.8563 24.4287 31.3884 24.3835 31.9205 24.3383C32.3113 24.3022 32.702 24.1938 33.0595 24.0221C33.2009 23.9589 33.2258 24.0221 33.2341 24.1486C33.2591 24.6093 33.2923 25.0611 33.3256 25.5218C33.3339 25.6844 33.2674 25.7477 33.1427 25.8019C32.3944 26.1361 31.6129 26.2536 30.8147 26.2716C30.1662 26.2716 29.5343 26.1723 28.969 25.8019C28.362 25.4044 28.0378 24.7991 27.8881 24.0673C27.5223 22.2875 28.3205 20.291 29.7754 19.4056ZM40.3095 18.9629C40.4841 18.9629 40.5506 18.972 40.5007 19.1978C40.4009 19.6495 40.3178 20.1103 40.2429 20.571C40.218 20.7246 40.1598 20.7608 40.0268 20.7608L38.4554 20.7517C38.3141 20.7517 38.2475 20.7969 38.2226 20.9595C37.9482 22.5766 37.6656 24.1938 37.3912 25.8109C37.3496 26.0458 37.2914 26.1542 37.0337 26.1452C36.4517 26.1181 35.8697 26.1271 35.2877 26.1361C35.1297 26.1361 35.0799 26.1181 35.1131 25.9193C35.4041 24.2841 35.6785 22.6399 35.9778 21.0047C36.0194 20.7788 35.9528 20.7608 35.7783 20.7608C35.3625 20.7698 34.9468 20.7608 34.5311 20.7698C34.3732 20.7698 34.3316 20.7337 34.3648 20.553C34.4563 20.1103 34.5311 19.6586 34.6143 19.2069C34.6392 19.0443 34.6974 18.972 34.872 18.972C35.7782 18.972 36.7011 18.9629 37.6157 18.9629H40.3095ZM27.4059 19.0171C27.5639 19.0171 27.5888 19.0804 27.5639 19.2249C27.1981 21.3028 26.8322 23.3807 26.4581 25.4676C26.4248 25.6754 26.4581 25.9554 26.3168 26.0729C26.1671 26.1994 25.926 26.109 25.7181 26.109C25.5685 26.1361 25.4022 26.1271 25.2276 26.1271C24.92 26.1271 24.6124 26.1181 24.313 26.1271C24.1385 26.1361 24.1052 26.0819 24.1385 25.9012C24.2881 25.1966 24.4211 24.5009 24.5542 23.7963C24.5708 23.724 24.6207 23.6336 24.5625 23.5794C24.5043 23.5252 24.4461 23.6065 24.3796 23.6336C23.5398 23.9318 22.6918 23.995 21.8687 23.5704C21.2285 23.2361 20.9292 22.5405 21.029 21.6732C21.1204 20.833 21.3283 20.0109 21.4696 19.1798C21.4862 19.0804 21.5278 19.0352 21.6276 19.0352H23.5731C23.7394 19.0352 23.7227 19.1256 23.6978 19.252C23.5814 19.9025 23.4567 20.553 23.3569 21.2034C23.2738 21.7455 23.5315 22.0707 24.0387 22.0978C24.2465 22.1069 24.4461 22.0617 24.6373 21.9804C24.8119 21.9172 24.895 21.7907 24.9283 21.5829C25.0447 20.7969 25.1943 20.0109 25.3191 19.2249C25.344 19.0894 25.3856 19.0171 25.5269 19.0171C26.1505 19.0262 26.7823 19.0262 27.4059 19.0171ZM5.32355 21.6551C5.28198 21.0227 4.85796 20.6885 4.33417 20.8963C4.00991 21.0318 3.79375 21.2938 3.63578 21.619C3.26164 22.3779 3.24501 23.2271 3.11199 24.0492C3.09536 24.1576 3.16187 24.1938 3.22007 24.2389C3.65241 24.5913 4.2344 24.5009 4.60853 24.0221C5.09075 23.4078 5.29029 22.676 5.32355 21.881V21.6551ZM12.4321 20.7246C12.1328 20.6885 11.8335 20.6975 11.5675 20.8872C10.761 21.4564 10.4866 22.3327 10.3952 23.2723C10.4035 23.3807 10.4118 23.453 10.4201 23.5252C10.4451 23.8685 10.5531 24.1757 10.8774 24.2931C11.2266 24.4106 11.4926 24.2299 11.7088 23.9589C11.8751 23.7421 11.9915 23.4981 12.0829 23.2361C12.349 22.4773 12.4155 21.6551 12.5652 20.8601C12.5901 20.7427 12.5153 20.7337 12.4321 20.7246ZM31.6212 20.6523C31.0392 20.5259 30.4406 20.8872 30.2078 21.5196C30.1246 21.7545 30.1329 21.7726 30.3657 21.7636H30.6069C30.9976 21.7545 31.3801 21.7365 31.7376 21.5648C31.9454 21.4564 32.0452 21.2847 32.0119 21.0318C31.9787 20.7969 31.8207 20.6975 31.6212 20.6523Z" fill="#767986"/>
<path opacity="0.8" fill-rule="evenodd" clip-rule="evenodd" d="M19.1997 0C26.1895 0 31.8559 5.48449 31.8559 12.25C31.8559 12.4154 31.8525 12.5801 31.8457 12.744L41.9638 12.7433L41.3604 15.9496H18.2653L18.3367 15.8746L18.2181 15.8747L20.2495 3.09272C19.9184 3.05915 19.5824 3.04194 19.2421 3.04194C13.9646 3.04194 9.68629 7.18291 9.68629 12.2911C9.68629 13.5907 9.96323 14.8277 10.4631 15.9499L1.44702 15.9496L2.05046 12.7433L6.55358 12.744C6.54686 12.5801 6.54347 12.4154 6.54347 12.25C6.54347 5.48449 12.2098 0 19.1997 0ZM11.1879 11.3499L12.1075 11.6073L11.9283 12.1228L11.0391 11.8647L11.1879 11.3499ZM11.9101 9.41493L12.9593 10.0457L12.5807 10.6428L11.5532 10.0457L11.9101 9.41493ZM13.2827 7.66899L14.2262 8.78435L13.5349 9.37639L12.5745 8.38363L13.2827 7.66899ZM15.241 6.3196L15.9163 7.85173L14.9216 8.35413L14.1899 6.88647L15.241 6.3196ZM17.751 5.5661L18.0198 7.29911L16.8086 7.55105L16.5365 5.8011L17.751 5.5661Z" fill="#767986"/>
</svg>
