<svg width="71" height="17" viewBox="0 0 71 17" fill="none" xmlns="http://www.w3.org/2000/svg">
<path fill-rule="evenodd" clip-rule="evenodd" d="M70.166 0L69.3244 3.04964H61.4907V6.04824H65.7763C68.6321 6.04824 70.9474 8.36824 70.9474 11.2311C70.9474 14.0928 68.6321 16.4128 65.7763 16.4128H58.2621V0H70.166ZM32.7665 0.000696C36.2486 0.000696 39.072 2.82878 39.072 6.31922C39.072 9.80734 36.2486 12.6366 32.7665 12.6366H29.6142V16.4124H26.3856V0.000696H32.7665ZM48.7991 0.000696C52.2812 0.000696 55.1047 2.82878 55.1047 6.31922C55.1047 9.80734 52.2812 12.6366 48.7991 12.6366H45.6481V16.4124H42.4183V0.000696H48.7991ZM65.7763 9.09788H61.4907V13.3632H65.7763C66.9524 13.3632 67.904 12.4085 67.904 11.2311C67.904 10.0526 66.9524 9.09788 65.7763 9.09788ZM32.7665 3.05034H29.6142V9.58694H32.7665C34.5677 9.58694 36.0286 8.12418 36.0286 6.31922C36.0286 4.5131 34.5677 3.05034 32.7665 3.05034ZM48.7991 3.05034H45.6481V9.58694H48.7991C50.6004 9.58694 52.0613 8.12418 52.0613 6.31922C52.0613 4.5131 50.6004 3.05034 48.7991 3.05034Z" fill="#767986"/>
<path opacity="0.8" fill-rule="evenodd" clip-rule="evenodd" d="M21.3536 9.57801L15.9938 14.95C15.0585 15.8861 13.7897 16.4127 12.4677 16.4127H9.55861L14.9184 11.0419C15.8538 10.1047 17.1214 9.57801 18.4434 9.57801H21.3536ZM21.3536 0.00012207L6.43534 14.949C5.49998 15.8863 4.23239 16.413 2.90922 16.413H0.000115762L14.9184 1.46404C15.8538 0.526762 17.1214 0.00012207 18.4434 0.00012207H21.3536ZM11.7834 0.00058607L6.43523 5.35979C5.49987 6.29707 4.23227 6.82371 2.90911 6.82371H0L5.34938 1.46451C6.28358 0.526066 7.55234 0.00058607 8.87434 0.00058607H11.7834Z" fill="#767986"/>
</svg>
