<svg width="105" height="23" viewBox="0 0 105 23" fill="none" xmlns="http://www.w3.org/2000/svg">
<path opacity="0.8" d="M93.8528 0.900024C95.5462 0.900024 97.1574 1.29479 98.6031 2.00096C98.8299 2.10505 99.0581 2.22963 99.2841 2.35431L98.2927 3.24783L96.8066 1.68967L94.2458 3.9747L92.7378 2.33328L88.0289 6.59227L91.0437 9.93703L89.8668 10.9755L92.8412 14.3203L91.6641 15.3583L95.9188 20.1158L98.437 17.789L100.627 20.2826C100.193 20.615 99.7181 20.9481 99.2024 21.2384C97.6325 22.1316 95.8148 22.65 93.8737 22.65C87.9045 22.65 83.0518 17.769 83.0518 11.7657C83.0308 5.80294 87.8843 0.900024 93.8528 0.900024ZM91.8699 11.1004L94.4515 8.77353L96.7651 11.3703L94.1829 13.6969L91.8699 11.1004ZM93.7085 15.5879L96.2692 13.2404L98.6031 15.8369L96.0213 18.1639L93.7085 15.5879ZM90.0329 6.67565L92.6138 4.34876L94.9269 6.94551L92.3451 9.27228L90.0329 6.67565ZM94.7614 5.42877L96.6823 3.6838L98.4175 5.61592L96.4966 7.3815L94.7614 5.42877ZM98.1901 13.427L100.11 11.6819L101.845 13.6342L99.9245 15.3803L98.1901 13.427ZM99.8834 17.3538L101.804 15.6084L103.538 17.5404L101.618 19.3057L99.8834 17.3538ZM100.668 8.37877L101.949 7.21527L103.105 8.50377L101.825 9.66684L100.668 8.37877ZM99.0161 4.53547L100.296 3.35158L101.453 4.66015L100.172 5.82354L99.0161 4.53547ZM102.3 12.2224L103.58 11.059L104.757 12.3471L103.457 13.5101L102.3 12.2224ZM96.5378 9.33463L98.4587 7.58955L100.193 9.52123L98.273 11.2666L96.5378 9.33463Z" fill="#767986"/>
<path d="M70.1886 8.93668L72.2179 14.5416H72.313L74.1196 8.93668H75.8165L72.9465 16.5512C72.1526 18.6533 71.1866 19.75 69.3635 19.75V18.5019C70.4423 18.5019 71.1072 17.679 71.4886 16.5512L68.4442 8.93668H70.1886ZM24.588 5.25V9.59032C25.0625 9.34743 25.871 9.02647 26.7275 9.02647C28.6938 9.02647 29.7563 10.3363 29.7563 12.7735C29.7563 15.6219 28.329 17.0079 26.0312 17.0079C25.1902 17.0079 23.8901 16.7489 22.9383 16.2604V5.63024L24.588 5.25ZM17.6804 8.93668C19.6618 8.93668 20.8834 10.1712 20.8834 12.6533V13.2169H15.7146C15.7146 15.0441 16.491 15.8515 18.1247 15.8515C18.9807 15.8515 19.7735 15.5616 20.6449 15.06V16.2177C19.9315 16.6136 18.9807 16.9184 17.8384 16.9184C15.1754 16.9184 14.0814 15.3344 14.0814 12.9282C14.0814 10.6121 15.302 8.93668 17.6804 8.93668ZM47.3781 8.93668C49.4716 8.93668 50.9933 10.2613 50.9933 12.9277C50.9933 15.5317 49.5506 16.9184 47.3781 16.9184C45.206 16.9184 43.7632 15.5317 43.7632 12.9277C43.7632 10.2614 45.2857 8.93668 47.3781 8.93668ZM64.3299 8.93668C66.3126 8.93668 67.5339 10.1712 67.5339 12.6533V13.2169H62.3644C62.3644 15.0441 63.1414 15.8515 64.7746 15.8515C65.6298 15.8515 66.4238 15.5616 67.2943 15.06V16.2177C66.5812 16.6136 65.6298 16.9184 64.4881 16.9184C61.8259 16.9184 60.7312 15.3344 60.7312 12.9282C60.7312 10.6121 61.9514 8.93668 64.3299 8.93668ZM2.34657 5.99412L4.12253 14.0518H4.23343L6.29432 5.99412H7.70592L9.90993 14.0518H10.0209L11.6384 5.99412H13.4937L10.9242 16.7929H9.21168L7.05626 9.19177H6.94475L4.8511 16.7929H3.13984L0.571045 5.99412H2.34657ZM33.3414 5.98739L36.8926 14.5016H36.972L40.3644 5.98739H42.3315V16.787H40.6191V8.95768H40.4762L37.2412 16.787H36.2274L32.9916 9.14072H32.8495V16.787H31.4224V5.98739H33.3414ZM56.2906 8.93668C58.1932 8.93668 58.9054 9.65272 58.9054 11.2211V16.7355H57.2576V11.5719C57.2576 10.3689 56.6403 10.1557 55.8306 10.1557C55.1972 10.1557 54.3875 10.4302 53.8964 10.7043V16.7355H52.2474V10.0646C52.9608 9.65272 54.4677 8.93668 56.2906 8.93668ZM26.3001 10.2146C25.6653 10.2146 25.2057 10.3827 24.5713 10.7171V15.6971C25.0788 15.9103 25.6342 15.9419 26.0312 15.9419C27.2042 15.9419 28.0912 15.2402 28.0912 12.7735C28.0912 10.8391 27.3619 10.2146 26.3001 10.2146ZM47.3781 10.004C46.332 10.004 45.4274 10.8717 45.4274 12.9277C45.4274 15.0146 46.2529 15.8515 47.3781 15.8515C48.5032 15.8515 49.3276 15.0146 49.3276 12.9277C49.3276 10.8717 48.4562 10.004 47.3781 10.004ZM17.6329 9.95779C16.6657 9.95779 15.92 10.6735 15.7464 12.1957H19.3766C19.2978 10.5969 18.4887 9.95779 17.6329 9.95779ZM64.2824 9.95779C63.315 9.95779 62.5707 10.6735 62.3956 12.1957H66.0262C65.9481 10.5969 65.1386 9.95779 64.2824 9.95779Z" fill="#767986"/>
</svg>
