<svg width="122" height="25" viewBox="0 0 122 25" fill="none" xmlns="http://www.w3.org/2000/svg">
<path fill-rule="evenodd" clip-rule="evenodd" d="M51.6221 13.7797C51.6221 9.3842 53.3159 6.57491 56.5918 6.57491C57.8406 6.57491 58.5625 6.90876 59.1733 7.29805L58.8679 9.35705C58.2849 8.8557 57.4521 8.38312 56.5638 8.38312C55.0091 8.38312 53.8989 10.1354 53.8989 13.6685C53.8989 17.1731 54.7315 19.1767 56.4804 19.1767C57.5352 19.1767 58.3405 18.7591 58.8401 18.3141L59.3397 19.9272C58.5903 20.5671 57.7019 20.9844 56.4248 20.9844C53.4266 20.9844 51.6221 18.5644 51.6221 13.7797ZM45.2929 13.807V20.7898H43.1275V6.76932H45.2929V13.2512L48.6519 6.76932H50.8451L47.375 13.3623L51.3445 20.7898H48.985L45.2929 13.807ZM35.1047 12.5H38.6859C38.6859 10.1076 38.2972 8.35504 37.0481 8.35504C35.7154 8.35504 35.2436 9.99621 35.1047 12.5ZM37.4921 20.9844C34.605 20.9844 32.8285 18.6758 32.8285 14.3645C32.8285 9.85724 34.0779 6.57491 37.0481 6.57491C39.38 6.57491 40.9069 8.32744 40.9069 13.0837V14.2803H35.0769C35.0769 17.4518 35.9652 19.1208 37.6864 19.1208C38.9079 19.1208 39.8796 18.5644 40.4348 18.1751L40.9347 19.8435C40.0463 20.5395 38.8801 20.9844 37.4921 20.9844ZM28.2756 8.52185H25.8603V8.77264C25.8603 11.7211 25.7217 16.0324 24.5557 19.0092H28.2756V8.52185ZM31.5234 23.5436H29.5805V20.7898H23.584V23.5436H21.641V19.0092H22.5016C23.7782 16.0324 23.9172 11.6933 23.9172 7.96552V6.76932H30.4133V19.0092H31.5234V23.5436ZM15.0338 6.76932V12.722H18.2541V6.76932H20.3917V20.7898H18.2541V14.503H15.0338V20.7898H12.8683V6.76932H15.0338ZM10.0896 0.900024V20.7899H7.95189V13.1677H6.17517L2.78866 20.7899H0.317826L4.03796 12.639C2.28856 11.7488 1.12261 10.1355 1.12261 7.15915C1.12261 2.9864 3.7599 0.900024 6.89706 0.900024H10.0896ZM7.95189 2.70823H6.81371C5.09256 2.70823 3.4272 3.84875 3.4272 7.15915C3.4272 10.358 4.95364 11.3874 6.81371 11.3874H7.95189V2.70823Z" fill="#767986"/>
<path fill-rule="evenodd" clip-rule="evenodd" d="M73.9815 0.900024V19.6496H75.3424V24.1H74.2586L74.0646 20.7896H65.5702L65.3752 24.1H64.2928V19.6496H64.8761C65.8475 18.8422 66.3192 16.6171 66.597 13.7797C66.8746 10.8312 66.9577 6.43554 67.0415 0.900024H73.9815ZM80.8134 6.49125C83.2282 6.49125 84.7825 9.02306 84.3386 14.0025H78.0094C78.065 17.8412 79.064 19.9273 81.0906 19.9273C82.9502 19.9273 83.9219 18.4256 83.9219 18.4256L84.3386 19.4816C84.3386 19.4816 83.2838 21.0673 81.0633 21.0673C78.0933 21.0673 76.7324 18.3689 76.7324 13.7795C76.7324 9.18964 78.4533 6.49125 80.8134 6.49125ZM88.116 6.76932V12.9723H92.891V6.76932H94.1954V20.7898H92.891V14.03H88.116V20.7898H86.8116V6.76932H88.116ZM98.5837 6.76944V11.9716H99.6116C102.276 11.9716 103.998 13.4181 103.998 16.3392C103.998 19.3153 102.165 20.7897 99.5281 20.7897H97.28V6.76944H98.5837ZM112.161 6.76941V7.85471H107.524V20.7896H106.248V6.76941H112.161ZM115.522 6.76939V16.5055C115.522 17.2565 115.466 17.8685 115.411 18.4805H115.494C115.688 17.8411 115.966 17.2291 116.243 16.6171L120.797 6.76939H121.935V20.7896H120.686V11.0257C120.686 10.3023 120.74 9.69027 120.797 9.1061H120.713C120.519 9.71811 120.269 10.3023 119.964 10.9143L115.411 20.7896H114.301V6.76939H115.522ZM99.5554 13.0007H98.5837V19.7603H99.4169C101.388 19.7603 102.72 18.787 102.72 16.3668C102.72 14.0025 101.555 13.0007 99.5554 13.0007ZM72.5935 2.04054H68.2908C68.2072 7.0754 68.0683 10.9143 67.8463 13.7797C67.5965 16.7558 67.1522 18.7308 66.403 19.6496H72.5935V2.04054ZM80.8134 7.57654C79.3421 7.57654 78.1477 9.46781 78.0368 12.9724H83.1178C83.3394 9.24532 82.2292 7.57654 80.8134 7.57654Z" fill="#767986"/>
</svg>
