<svg width="18" height="18" viewBox="0 0 18 18" fill="none" xmlns="http://www.w3.org/2000/svg">
<path d="M9 17C13.4183 17 17 13.4183 17 9C17 4.58172 13.4183 1 9 1C4.58172 1 1 4.58172 1 9C1 13.4183 4.58172 17 9 17Z" stroke="#DFE1E5"/>
<path opacity="0.7" d="M11.8038 7.38033V11.0335C11.8038 11.2019 11.7438 11.3444 11.6238 11.4614C11.5036 11.5783 11.3593 11.6368 11.1905 11.6368H10.7684V12.8819C10.7684 13.0392 10.7122 13.1727 10.5997 13.2824C10.4871 13.3921 10.3502 13.4469 10.1889 13.4469C10.0276 13.4469 9.89073 13.3921 9.77819 13.2824C9.66566 13.1727 9.60941 13.0392 9.60941 12.8819V11.6368H8.83291V12.8819C8.83291 13.0392 8.77665 13.1727 8.66411 13.2824C8.55157 13.3921 8.4146 13.4469 8.25337 13.4469C8.09588 13.4469 7.96076 13.3921 7.84824 13.2824C7.73572 13.1727 7.67946 13.0392 7.67946 12.8819L7.67375 11.6367H7.25733C7.08472 11.6367 6.93851 11.5782 6.81842 11.4613C6.69843 11.3443 6.63845 11.2018 6.63845 11.0334V7.38033H11.8038ZM5.75239 7.27621C5.90998 7.27621 6.04508 7.33105 6.15762 7.44073C6.27016 7.55041 6.32642 7.68201 6.32642 7.83564V10.1942C6.32642 10.3517 6.27099 10.485 6.16043 10.5947C6.04965 10.7044 5.9136 10.7592 5.75239 10.7592C5.59105 10.7592 5.45417 10.7044 5.34165 10.5947C5.22911 10.485 5.17285 10.3517 5.17285 10.1942V7.83564C5.17285 7.68203 5.22913 7.55041 5.34165 7.44073C5.45417 7.33105 5.59105 7.27621 5.75239 7.27621ZM12.6873 7.27621C12.8485 7.27621 12.9855 7.33024 13.098 7.43801C13.2105 7.54597 13.2668 7.67858 13.2668 7.83564V10.1942C13.2668 10.3517 13.2105 10.485 13.098 10.5947C12.9855 10.7044 12.8485 10.7592 12.6873 10.7592C12.5298 10.7592 12.3947 10.7044 12.2821 10.5947C12.1696 10.485 12.1133 10.3517 12.1133 10.1942V7.83564C12.1133 7.67859 12.1696 7.54597 12.2821 7.43801C12.3947 7.33024 12.5297 7.27621 12.6873 7.27621ZM10.8251 4.21094L10.8701 4.22197C10.9151 4.24762 10.9244 4.28409 10.8982 4.33166L10.4986 5.05008C10.9 5.25147 11.2208 5.53194 11.4608 5.89211C11.7009 6.25256 11.821 6.64638 11.821 7.07422H6.6161C6.6161 6.64628 6.73619 6.25248 6.97626 5.89211C7.21634 5.53194 7.539 5.25147 7.94413 5.05008L7.54459 4.33166C7.51826 4.28409 7.52759 4.24774 7.57266 4.22197C7.62135 4.19996 7.65885 4.21107 7.68518 4.2548L8.09031 4.97897C8.44665 4.82535 8.82371 4.74838 9.22138 4.74838C9.61896 4.74838 9.99599 4.82534 10.3525 4.97897L10.7576 4.2548C10.7838 4.21107 10.8213 4.19986 10.8701 4.22197L10.8251 4.21094ZM8.03395 5.73043C7.97397 5.73043 7.92329 5.75144 7.88205 5.79346C7.84081 5.83557 7.82019 5.88578 7.82019 5.94425C7.82019 6.00292 7.84081 6.05302 7.88205 6.09504C7.92329 6.13725 7.97385 6.15826 8.03395 6.15826C8.09394 6.15826 8.14554 6.13725 8.18875 6.09504C8.23175 6.05302 8.25339 6.00282 8.25351 5.94425C8.25351 5.88578 8.23185 5.83567 8.18875 5.79346C8.14554 5.75144 8.09394 5.73043 8.03395 5.73043ZM10.4086 5.73043C10.3485 5.73043 10.2969 5.75144 10.2538 5.79346C10.2106 5.83557 10.189 5.88578 10.189 5.94425C10.189 6.00292 10.2106 6.05302 10.2538 6.09504C10.2969 6.13725 10.3485 6.15826 10.4086 6.15826C10.4685 6.15826 10.5192 6.13725 10.5605 6.09504C10.6018 6.05302 10.6224 6.00282 10.6224 5.94425C10.6224 5.88578 10.6018 5.83567 10.5605 5.79346C10.5191 5.75144 10.4686 5.73043 10.4086 5.73043Z" fill="#898F97"/>
</svg>
