<svg width="40" height="40" viewBox="0 0 40 40" fill="none" xmlns="http://www.w3.org/2000/svg">
<path opacity="0.6" d="M20.0909 39.1818C30.6345 39.1818 39.1818 30.6345 39.1818 20.0909C39.1818 9.54729 30.6345 1 20.0909 1C9.54729 1 1 9.54729 1 20.0909C1 30.6345 9.54729 39.1818 20.0909 39.1818Z" stroke="#5F6166" stroke-width="0.5"/>
<path opacity="0.7" d="M26.784 16.2257V24.9435C26.784 25.3453 26.6407 25.6854 26.3544 25.9645C26.0676 26.2436 25.7231 26.3832 25.3204 26.3832H24.3132V29.3545C24.3132 29.7298 24.179 30.0484 23.9104 30.3102C23.6419 30.572 23.315 30.7028 22.9303 30.7028C22.5452 30.7028 22.2187 30.572 21.9501 30.3102C21.6816 30.0484 21.5473 29.7297 21.5473 29.3545V26.3832H19.6943V29.3545C19.6943 29.7298 19.5601 30.0484 19.2915 30.3102C19.0229 30.572 18.6961 30.7028 18.3113 30.7028C17.9355 30.7028 17.613 30.572 17.3445 30.3102C17.076 30.0484 16.9418 29.7297 16.9418 29.3545L16.9281 26.3829H15.9344C15.5225 26.3829 15.1736 26.2434 14.887 25.9643C14.6007 25.6852 14.4575 25.345 14.4575 24.9433V16.2257H26.784ZM12.3431 15.9772C12.7191 15.9772 13.0415 16.1081 13.3101 16.3698C13.5787 16.6316 13.7129 16.9456 13.7129 17.3122V22.9406C13.7129 23.3163 13.5806 23.6345 13.3168 23.8963C13.0525 24.158 12.7278 24.2889 12.3431 24.2889C11.9581 24.2889 11.6314 24.158 11.3629 23.8963C11.0943 23.6345 10.9601 23.3163 10.9601 22.9406V17.3122C10.9601 16.9456 11.0944 16.6316 11.3629 16.3698C11.6314 16.1081 11.9581 15.9772 12.3431 15.9772ZM28.8922 15.9772C29.277 15.9772 29.6038 16.1061 29.8724 16.3633C30.1409 16.621 30.2751 16.9374 30.2751 17.3122V22.9406C30.2751 23.3163 30.1409 23.6345 29.8724 23.8963C29.6038 24.158 29.277 24.2889 28.8922 24.2889C28.5163 24.2889 28.1939 24.158 27.9254 23.8963C27.6568 23.6345 27.5226 23.3163 27.5226 22.9406V17.3122C27.5226 16.9374 27.6569 16.621 27.9254 16.3633C28.1939 16.1061 28.5161 15.9772 28.8922 15.9772ZM24.4483 8.66235L24.5558 8.68869C24.6631 8.74989 24.6854 8.83693 24.6228 8.95043L23.6694 10.6649C24.627 11.1454 25.3926 11.8148 25.9655 12.6743C26.5384 13.5344 26.825 14.4742 26.825 15.4952H14.4042C14.4042 14.474 14.6908 13.5342 15.2637 12.6743C15.8366 11.8148 16.6066 11.1454 17.5734 10.6649L16.6199 8.95043C16.5571 8.83693 16.5793 8.75017 16.6869 8.68869C16.8031 8.63616 16.8926 8.66266 16.9554 8.76703L17.9222 10.4952C18.7726 10.1286 19.6724 9.94489 20.6213 9.94489C21.5701 9.94489 22.4698 10.1285 23.3205 10.4952L24.2873 8.76703C24.3498 8.66266 24.4393 8.63592 24.5558 8.68869L24.4483 8.66235ZM17.7877 12.2884C17.6446 12.2884 17.5236 12.3386 17.4252 12.4388C17.3268 12.5393 17.2776 12.6591 17.2776 12.7987C17.2776 12.9387 17.3268 13.0582 17.4252 13.1585C17.5236 13.2592 17.6443 13.3094 17.7877 13.3094C17.9309 13.3094 18.054 13.2592 18.1571 13.1585C18.2597 13.0582 18.3114 12.9384 18.3116 12.7987C18.3116 12.6591 18.26 12.5396 18.1571 12.4388C18.054 12.3386 17.9309 12.2884 17.7877 12.2884ZM23.4545 12.2884C23.311 12.2884 23.1879 12.3386 23.085 12.4388C22.982 12.5393 22.9305 12.6591 22.9305 12.7987C22.9305 12.9387 22.982 13.0582 23.085 13.1585C23.1879 13.2592 23.311 13.3094 23.4545 13.3094C23.5974 13.3094 23.7183 13.2592 23.817 13.1585C23.9154 13.0582 23.9646 12.9384 23.9646 12.7987C23.9646 12.6591 23.9155 12.5396 23.817 12.4388C23.7183 12.3386 23.5976 12.2884 23.4545 12.2884Z" fill="#9CA2AF"/>
</svg>
