<svg width="40" height="40" viewBox="0 0 40 40" fill="none" xmlns="http://www.w3.org/2000/svg">
<path opacity="0.6" d="M20.0909 39.1818C30.6345 39.1818 39.1818 30.6345 39.1818 20.0909C39.1818 9.54729 30.6345 1 20.0909 1C9.54729 1 1 9.54729 1 20.0909C1 30.6345 9.54729 39.1818 20.0909 39.1818Z" stroke="#5F6166" stroke-width="0.5"/>
<path opacity="0.7" d="M23.886 14.1029L24.4149 14.115C25.0844 14.196 26.9255 14.4389 28.1809 16.139C28.0972 16.2199 25.9213 17.4343 25.9213 19.944C25.9213 22.9394 28.683 23.9109 28.7667 23.9919C28.7667 24.0729 28.3483 25.4491 27.344 26.8254C26.5071 28.0398 25.5865 29.2542 24.1638 29.2542C22.7411 29.2542 22.3227 28.4446 20.7326 28.4446C19.1425 28.4446 18.6404 29.1732 17.3014 29.2542C15.9623 29.3351 14.9581 27.9588 14.0375 26.7445C12.28 24.2348 10.941 19.7011 12.7822 16.6247C13.7027 15.0865 15.2928 14.115 17.0503 14.115C18.3893 14.115 19.6446 15.0056 20.4815 15.0056C21.2347 15.0056 22.8248 13.9531 24.4149 14.115L23.886 14.1029ZM24.4149 9.25757C24.4986 10.4719 23.9964 11.6053 23.3269 12.4959C22.5737 13.3055 21.4021 13.9531 20.3141 13.8722C20.1468 12.7388 20.7326 11.5244 21.4021 10.7958C22.0716 9.90523 23.4106 9.33853 24.4149 9.25757Z" fill="#9CA2AF"/>
</svg>
