<svg width="18" height="18" viewBox="0 0 18 18" fill="none" xmlns="http://www.w3.org/2000/svg">
<path d="M9 17C13.4183 17 17 13.4183 17 9C17 4.58172 13.4183 1 9 1C4.58172 1 1 4.58172 1 9C1 13.4183 4.58172 17 9 17Z" stroke="#DFE1E5"/>
<path opacity="0.7" d="M10.5903 6.49077L10.8119 6.49584C11.0925 6.52976 11.864 6.63154 12.39 7.34397C12.355 7.37789 11.4432 7.88677 11.4432 8.93845C11.4432 10.1937 12.6005 10.6008 12.6355 10.6347C12.6355 10.6686 12.4602 11.2454 12.0393 11.8221C11.6886 12.331 11.3029 12.8399 10.7067 12.8399C10.1105 12.8399 9.93517 12.5006 9.26885 12.5006C8.60253 12.5006 8.39211 12.8059 7.831 12.8399C7.26988 12.8738 6.84905 12.297 6.46329 11.7882C5.72683 10.7365 5.16571 8.83668 5.93724 7.54752C6.32301 6.90294 6.98933 6.49584 7.72579 6.49584C8.2869 6.49584 8.81294 6.86902 9.16364 6.86902C9.47926 6.86902 10.1456 6.42799 10.8119 6.49584L10.5903 6.49077ZM10.8119 4.46033C10.847 4.96921 10.6366 5.44416 10.356 5.81734C10.0404 6.15659 9.5494 6.42799 9.0935 6.39406C9.02336 5.91911 9.26885 5.41023 9.5494 5.10491C9.82996 4.73173 10.3911 4.49425 10.8119 4.46033Z" fill="#898F97"/>
</svg>
