<svg width="15" height="17" viewBox="0 0 15 17" fill="none" xmlns="http://www.w3.org/2000/svg">
<path d="M10.875 12.0769V12.2826L11.0197 12.4287L12.5 13.9236V14.0385H0.5V13.9236L1.98028 12.4287L2.125 12.2826V12.0769V7.97436C2.125 5.61799 3.34466 3.7662 5.3976 3.27499L5.78125 3.1832V2.78872V2.23077C5.78125 1.82125 6.10638 1.5 6.5 1.5C6.89362 1.5 7.21875 1.82125 7.21875 2.23077V2.78872V3.18288L7.60201 3.2749C9.64752 3.76604 10.875 5.62664 10.875 7.97436V12.0769ZM7.51026 15.859C7.32566 16.2388 6.93869 16.5 6.5 16.5C6.05637 16.5 5.6712 16.2393 5.48827 15.859H7.51026Z" fill="white" stroke="#898F97"/>
<circle cx="10.5" cy="4.5" r="4" fill="#FD7028" stroke="white"/>
</svg>
