<svg width="16" height="12" viewBox="0 0 16 12" fill="none" xmlns="http://www.w3.org/2000/svg">
<path fill-rule="evenodd" clip-rule="evenodd" d="M1.99999 0.666626H14C14.7364 0.666626 15.3333 1.26358 15.3333 1.99996V3.49996H0.666656V1.99996C0.666656 1.26358 1.26361 0.666626 1.99999 0.666626ZM0.666656 4.49996V9.99996C0.666656 10.7363 1.26361 11.3333 1.99999 11.3333H14C14.7364 11.3333 15.3333 10.7363 15.3333 9.99996V4.49996H0.666656ZM8.66666 7.49996C8.39051 7.49996 8.16666 7.72382 8.16666 7.99996C8.16666 8.2761 8.39051 8.49996 8.66666 8.49996H12.6667C12.9428 8.49996 13.1667 8.2761 13.1667 7.99996C13.1667 7.72382 12.9428 7.49996 12.6667 7.49996H8.66666Z" fill="#484855"/>
</svg>
