<svg width="16" height="15" viewBox="0 0 16 15" fill="none" xmlns="http://www.w3.org/2000/svg">
<path d="M7.6159 2.02855L8 2.48944L8.3841 2.02855C9.16573 1.09066 10.3635 0.5 11.6 0.5C13.7777 0.5 15.5 2.24412 15.5 4.49591C15.5 5.88012 14.8952 7.17338 13.7347 8.62316C12.5681 10.0805 10.8901 11.6363 8.82017 13.5542L8.81946 13.5549L7.99871 14.3183L7.18022 13.5628L7.17915 13.5618L7.17509 13.558C5.10744 11.6381 3.43117 10.0816 2.26545 8.62432C1.10482 7.17341 0.5 5.88013 0.5 4.49591C0.5 2.24412 2.22225 0.5 4.4 0.5C5.63653 0.5 6.83427 1.09066 7.6159 2.02855Z" stroke="#898F97"/>
</svg>
