<svg width="16" height="16" viewBox="0 0 16 16" fill="none" xmlns="http://www.w3.org/2000/svg">
<circle cx="8" cy="8" r="5.5" stroke="#76777C"/>
<path fill-rule="evenodd" clip-rule="evenodd" d="M7.92966 7.00682C8.20205 7.05222 8.38605 7.30983 8.34066 7.58222L8.00506 9.59582C7.96979 9.80741 8.13296 10 8.34746 10H8.5C8.77614 10 9 10.2239 9 10.5C9 10.7762 8.77614 11 8.5 11H8.34746C7.51502 11 6.88181 10.2525 7.01866 9.43142L7.35426 7.41782C7.39966 7.14543 7.65727 6.96142 7.92966 7.00682Z" fill="#76777C"/>
<path d="M8.84766 5.75C8.84766 6.16421 8.51187 6.5 8.09766 6.5C7.68344 6.5 7.34766 6.16421 7.34766 5.75C7.34766 5.33579 7.68344 5 8.09766 5C8.51187 5 8.84766 5.33579 8.84766 5.75Z" fill="#76777C"/>
</svg>
