<svg width="16" height="16" viewBox="0 0 16 16" fill="none" xmlns="http://www.w3.org/2000/svg">
<path d="M5 6V3.66667C5 2.19391 6.19391 1 7.66667 1C9.13943 1 10.3333 2.19391 10.3333 3.66667V6M5 6H4.33333C3.59695 6 3 6.59695 3 7.33333V11.3333C3 12.8061 4.19391 14 5.66667 14H9.66667C11.1394 14 12.3333 12.8061 12.3333 11.3333V7.33333C12.3333 6.59695 11.7364 6 11 6H10.3333M5 6H10.3333M8.33333 10C8.33333 10.3682 8.03486 10.6667 7.66667 10.6667C7.29848 10.6667 7 10.3682 7 10C7 9.63181 7.29848 9.33333 7.66667 9.33333C8.03486 9.33333 8.33333 9.63181 8.33333 10Z" stroke="#489A51" stroke-linecap="round" stroke-linejoin="round"/>
</svg>
