<svg width="189" height="40" viewBox="0 0 189 40" fill="none" xmlns="http://www.w3.org/2000/svg">
<path d="M10.4833 9.14872C4.20552 9.14872 0 13.6 0 19.6103C0 25.641 4.20552 30.0718 10.4833 30.0718C13.7746 30.0718 16.5377 28.7385 18.3865 26.3385L14.6076 23.0769C13.4902 24.3077 12.0274 25.0872 10.3208 25.0872C7.57806 25.0872 5.4042 22.9333 5.4042 19.6103C5.4042 16.3077 7.59838 14.1333 10.3411 14.1333C12.068 14.1333 13.348 14.8308 14.5466 16.1231L18.3661 12.9026C16.558 10.5026 13.7746 9.14872 10.4833 9.14872ZM38.8794 9.68205H33.6987V11.8769C32.3984 10.2564 30.509 9.14872 27.8069 9.14872C22.3824 9.14872 18.2784 13.641 18.2784 19.6103C18.2784 25.5795 22.3824 30.0718 27.8069 30.0718C30.509 30.0718 32.4187 28.9641 33.6987 27.3641V29.559H38.8794V9.68205ZM28.7821 14.1333C31.8092 14.1333 33.8612 16.4718 33.8612 19.6103C33.8612 22.7487 31.8092 25.0872 28.7821 25.0872C25.6736 25.0872 23.7029 22.6462 23.7029 19.6103C23.7029 16.5744 25.6736 14.1333 28.7821 14.1333ZM58.0517 11.0564C55.4309 9.7641 52.9726 9.16923 49.8236 9.16923C44.6428 9.16923 41.5141 11.5897 41.5141 15.6718C41.5141 19.01 43.7079 21.0113 48.1344 21.6757L49.9251 21.9282C52.2006 22.2564 53.1961 22.7897 53.1961 23.7539C53.1961 24.9231 52.0177 25.6205 49.5594 25.6205C46.5932 25.6205 44.5413 24.8 42.855 23.6718L40.7624 27.7333C43.3223 29.559 46.837 30.0718 49.5188 30.0718C55.2277 30.0718 58.5597 27.4256 58.5597 23.3231C58.5597 19.959 56.1826 18.0308 51.9162 17.3744L49.8241 17.055C48.2016 16.7999 46.9589 16.4789 46.9589 15.4051C46.9589 14.318 47.9747 13.6 49.9861 13.6C52.2006 13.6205 54.6995 14.441 56.2639 15.2205L58.0517 11.0564ZM65.7453 0H60.4427V29.559H65.7453V18.6667C65.7453 15.6718 67.6347 14.1744 69.9102 14.1744C72.3278 14.1744 73.75 15.7538 73.75 18.6256V29.559H79.0526V16.9026C79.0526 12.2872 75.8629 9.14872 71.3933 9.14872C69.2397 9.14872 67.1471 9.84616 65.7453 11.8154V0ZM100.622 9.68205H95.34V20.6154C95.34 23.7949 93.5928 25.0872 91.3173 25.0872C89.0216 25.0872 87.2947 23.7949 87.2947 20.6154V9.68205H81.992V21.0872C81.992 27.3641 86.3804 30.0718 91.3173 30.0718C96.2339 30.0718 100.622 27.3641 100.622 21.0872V9.68205ZM114.776 9.14872C112.135 9.14872 110.287 10.1949 109.007 11.7538V0.0205128H103.724V29.559H108.905V27.3641C110.185 28.9641 112.074 30.0718 114.797 30.0718C120.221 30.0718 124.325 25.5795 124.325 19.6103C124.325 13.641 120.221 9.14872 114.776 9.14872ZM113.801 14.1333C116.93 14.1333 118.88 16.5744 118.88 19.6103C118.88 22.6462 116.93 25.0872 113.801 25.0872C110.794 25.0872 108.742 22.7487 108.742 19.6103C108.742 16.4718 110.794 14.1333 113.801 14.1333ZM145.732 9.68205H140.552V11.8769C139.251 10.2564 137.362 9.14872 134.66 9.14872C129.235 9.14872 125.131 13.641 125.131 19.6103C125.131 25.5795 129.235 30.0718 134.66 30.0718C137.362 30.0718 139.272 28.9641 140.552 27.3641V29.559H145.732V9.68205ZM135.635 14.1333C138.662 14.1333 140.714 16.4718 140.714 19.6103C140.714 22.7487 138.662 25.0872 135.635 25.0872C132.527 25.0872 130.556 22.6462 130.556 19.6103C130.556 16.5744 132.527 14.1333 135.635 14.1333ZM158.261 9.14872C151.983 9.14872 147.778 13.6 147.778 19.6103C147.778 25.641 151.983 30.0718 158.261 30.0718C161.553 30.0718 164.316 28.7385 166.164 26.3385L162.386 23.0769C161.268 24.3077 159.805 25.0872 158.099 25.0872C155.356 25.0872 153.182 22.9333 153.182 19.6103C153.182 16.3077 155.376 14.1333 158.119 14.1333C159.846 14.1333 161.126 14.8308 162.325 16.1231L166.144 12.9026C164.336 10.5026 161.553 9.14872 158.261 9.14872ZM172.984 0.0205128V16.759H174.853L180.4 9.68205H186.901L179.14 19.0359L186.962 29.559H180.44L174.772 21.518H172.984V29.559H167.682V0.0205128H172.984Z" fill="white"/>
<path d="M187.94 34.0717H0.215393V39.8153H187.94V34.0717Z" fill="url(#paint0_linear)"/>
<defs>
<linearGradient id="paint0_linear" x1="187.94" y1="36.9435" x2="0.215393" y2="36.9435" gradientUnits="userSpaceOnUse">
<stop stop-color="#FFAD33"/>
<stop offset="1" stop-color="#FF8432"/>
</linearGradient>
</defs>
</svg>
