<svg width="170" height="36" viewBox="0 0 170 36" fill="none" xmlns="http://www.w3.org/2000/svg">
<path d="M9.47045 8.23385C3.79919 8.23385 0 12.24 0 17.6492C0 23.0769 3.79919 27.0646 9.47045 27.0646C12.4437 27.0646 14.9398 25.8646 16.61 23.7046L13.1962 20.7692C12.1868 21.8769 10.8653 22.5785 9.32362 22.5785C6.84589 22.5785 4.88205 20.64 4.88205 17.6492C4.88205 14.6769 6.86424 12.72 9.34197 12.72C10.902 12.72 12.0583 13.3477 13.1412 14.5108L16.5916 11.6123C14.9582 9.45231 12.4437 8.23385 9.47045 8.23385ZM35.1229 8.71385H30.4428V10.6892C29.2681 9.23077 27.5613 8.23385 25.1202 8.23385C20.2198 8.23385 16.5124 12.2769 16.5124 17.6492C16.5124 23.0215 20.2198 27.0646 25.1202 27.0646C27.5613 27.0646 29.2865 26.0677 30.4428 24.6277V26.6031H35.1229V8.71385ZM26.0012 12.72C28.7359 12.72 30.5896 14.8246 30.5896 17.6492C30.5896 20.4738 28.7359 22.5785 26.0012 22.5785C23.1931 22.5785 21.4128 20.3815 21.4128 17.6492C21.4128 14.9169 23.1931 12.72 26.0012 12.72ZM52.4429 9.95077C50.0753 8.78769 47.8545 8.25231 45.0097 8.25231C40.3295 8.25231 37.5031 10.4308 37.5031 14.1046C37.5031 17.109 39.4849 18.9102 43.4837 19.5081L45.1015 19.7354C47.1571 20.0308 48.0564 20.5108 48.0564 21.3785C48.0564 22.4308 46.9919 23.0585 44.7711 23.0585C42.0915 23.0585 40.2378 22.32 38.7144 21.3046L36.824 24.96C39.1366 26.6031 42.3117 27.0646 44.7344 27.0646C49.8918 27.0646 52.9017 24.6831 52.9017 20.9908C52.9017 17.9631 50.7544 16.2277 46.9001 15.6369L45.0102 15.3495C43.5445 15.1199 42.4218 14.831 42.4218 13.8646C42.4218 12.8862 43.3395 12.24 45.1565 12.24C47.1571 12.2585 49.4146 12.9969 50.8278 13.6985L52.4429 9.95077ZM59.3931 0H54.6028V26.6031H59.3931V16.8C59.3931 14.1046 61.1 12.7569 63.1556 12.7569C65.3396 12.7569 66.6244 14.1785 66.6244 16.7631V26.6031H71.4147V15.2123C71.4147 11.0585 68.5332 8.23385 64.4954 8.23385C62.5499 8.23385 60.6595 8.86154 59.3931 10.6338V0ZM90.9004 8.71385H86.1284V18.5539C86.1284 21.4154 84.55 22.5785 82.4944 22.5785C80.4205 22.5785 78.8604 21.4154 78.8604 18.5539V8.71385H74.0701V18.9785C74.0701 24.6277 78.0345 27.0646 82.4944 27.0646C86.936 27.0646 90.9004 24.6277 90.9004 18.9785V8.71385ZM103.687 8.23385C101.301 8.23385 99.6308 9.17539 98.4746 10.5785V0.0184615H93.7026V26.6031H98.3828V24.6277C99.5391 26.0677 101.246 27.0646 103.705 27.0646C108.606 27.0646 112.313 23.0215 112.313 17.6492C112.313 12.2769 108.606 8.23385 103.687 8.23385ZM102.806 12.72C105.632 12.72 107.394 14.9169 107.394 17.6492C107.394 20.3815 105.632 22.5785 102.806 22.5785C100.09 22.5785 98.236 20.4738 98.236 17.6492C98.236 14.8246 100.09 12.72 102.806 12.72ZM131.652 8.71385H126.972V10.6892C125.797 9.23077 124.09 8.23385 121.649 8.23385C116.749 8.23385 113.042 12.2769 113.042 17.6492C113.042 23.0215 116.749 27.0646 121.649 27.0646C124.09 27.0646 125.816 26.0677 126.972 24.6277V26.6031H131.652V8.71385ZM122.53 12.72C125.265 12.72 127.119 14.8246 127.119 17.6492C127.119 20.4738 125.265 22.5785 122.53 22.5785C119.722 22.5785 117.942 20.3815 117.942 17.6492C117.942 14.9169 119.722 12.72 122.53 12.72ZM142.97 8.23385C137.299 8.23385 133.5 12.24 133.5 17.6492C133.5 23.0769 137.299 27.0646 142.97 27.0646C145.944 27.0646 148.44 25.8646 150.11 23.7046L146.696 20.7692C145.687 21.8769 144.365 22.5785 142.824 22.5785C140.346 22.5785 138.382 20.64 138.382 17.6492C138.382 14.6769 140.364 12.72 142.842 12.72C144.402 12.72 145.558 13.3477 146.641 14.5108L150.092 11.6123C148.458 9.45231 145.944 8.23385 142.97 8.23385ZM156.271 0.0184615V15.0831H157.959L162.97 8.71385H168.843L161.832 17.1323L168.898 26.6031H163.007L157.886 19.3662H156.271V26.6031H151.481V0.0184615H156.271Z" fill="#1D1B2A"/>
<path d="M169 30.6646H0.000427246V35.8338H169V30.6646Z" fill="url(#paint0_linear)"/>
<defs>
<linearGradient id="paint0_linear" x1="169.78" y1="33.2492" x2="0.192806" y2="33.2492" gradientUnits="userSpaceOnUse">
<stop stop-color="#FFAD33"/>
<stop offset="1" stop-color="#FF8432"/>
</linearGradient>
</defs>
</svg>
