<svg width="41" height="25" viewBox="0 0 41 25" fill="none" xmlns="http://www.w3.org/2000/svg">
<path d="M26.5081 2.91504H14.4973V22.0829H26.5081V2.91504Z" fill="#FF5F00"/>
<path d="M15.7339 12.5006C15.7324 10.6549 16.1606 8.83307 16.9861 7.17295C17.8117 5.51283 19.0128 4.05793 20.4987 2.91837C18.6584 1.50514 16.4482 0.626341 14.1208 0.382404C11.7934 0.138466 9.44277 0.539233 7.33748 1.5389C5.23219 2.53857 3.45721 4.09681 2.2154 6.03552C0.973586 7.97423 0.315048 10.2152 0.315048 12.5023C0.315048 14.7894 0.973586 17.0304 2.2154 18.9691C3.45721 20.9078 5.23219 22.4661 7.33748 23.4657C9.44277 24.4654 11.7934 24.8662 14.1208 24.6222C16.4482 24.3783 18.6584 23.4995 20.4987 22.0863C19.0124 20.9463 17.8109 19.4909 16.9854 17.8302C16.1599 16.1694 15.7319 14.3469 15.7339 12.5006Z" fill="#EB001B"/>
<path d="M39.4924 20.0547V19.662H39.6657V19.5807H39.2533V19.662H39.4162V20.0547H39.4924ZM40.2929 20.0547V19.5807H40.1681L40.0226 19.9193L39.877 19.5807H39.7523V20.0547H39.8424V19.6958L39.9775 20.0039H40.0711L40.2062 19.6958V20.0547H40.2929Z" fill="#F79E1B"/>
<path d="M40.6848 12.5007C40.6848 14.788 40.0261 17.0291 38.7841 18.9679C37.542 20.9066 35.7668 22.4649 33.6612 23.4644C31.5557 24.4639 29.2048 24.8644 26.8773 24.6201C24.5498 24.3758 22.3396 23.4966 20.4993 22.0829C21.9847 20.9424 23.1855 19.4871 24.0112 17.8269C24.8369 16.1666 25.266 14.3449 25.266 12.499C25.266 10.6531 24.8369 8.83135 24.0112 7.17114C23.1855 5.51092 21.9847 4.05563 20.4993 2.91505C22.3396 1.50138 24.5498 0.622152 26.8773 0.377864C29.2048 0.133576 31.5557 0.534085 33.6612 1.53361C35.7668 2.53314 37.542 4.09135 38.7841 6.03013C40.0261 7.9689 40.6848 10.21 40.6848 12.4973V12.5007Z" fill="#F79E1B"/>
</svg>
