<svg width="86" height="20" viewBox="0 0 86 20" fill="none" xmlns="http://www.w3.org/2000/svg">
<path fill-rule="evenodd" clip-rule="evenodd" d="M84.771 0L83.7542 3.71612H74.2903V7.37005H79.4677C82.9179 7.37005 85.715 10.1971 85.715 13.6856C85.715 17.1727 82.9179 19.9998 79.4677 19.9998H70.3897V0H84.771ZM39.5879 0.000848107C43.7948 0.000848107 47.2058 3.44699 47.2058 7.70024C47.2058 11.9507 43.7948 15.3982 39.5879 15.3982H35.7797V19.9992H31.8791V0.000848107H39.5879ZM58.9573 0.000848107C63.1641 0.000848107 66.5752 3.44699 66.5752 7.70024C66.5752 11.9507 63.1641 15.3982 58.9573 15.3982H55.1504V19.9992H51.2485V0.000848107H58.9573ZM79.4677 11.0862H74.2903V16.2836H79.4677C80.8886 16.2836 82.0382 15.1203 82.0382 13.6856C82.0382 12.2495 80.8886 11.0862 79.4677 11.0862ZM39.5879 3.71697H35.7797V11.6821H39.5879C41.7641 11.6821 43.529 9.89966 43.529 7.70024C43.529 5.49941 41.7641 3.71697 39.5879 3.71697ZM58.9573 3.71697H55.1504V11.6821H58.9573C61.1334 11.6821 62.8984 9.89966 62.8984 7.70024C62.8984 5.49941 61.1334 3.71697 58.9573 3.71697Z" fill="#E30613"/>
<path opacity="0.8" fill-rule="evenodd" clip-rule="evenodd" d="M25.7977 11.6712L19.3224 18.2172C18.1924 19.3579 16.6596 19.9996 15.0625 19.9996H11.5479L18.0232 13.4551C19.1532 12.313 20.6846 11.6712 22.2818 11.6712H25.7977ZM25.7977 0.000152588L7.77465 18.2161C6.64463 19.3582 5.11322 19.9999 3.51469 19.9999H0.000139855L18.0232 1.784C19.1532 0.641887 20.6846 0.000152588 22.2818 0.000152588H25.7977ZM14.2358 0.000717992L7.77452 6.53114C6.64449 7.67326 5.11308 8.31499 3.51455 8.31499H0L6.46268 1.78457C7.59131 0.641039 9.12411 0.000717992 10.7213 0.000717992H14.2358Z" fill="#E30613"/>
</svg>
