<svg width="53" height="17" viewBox="0 0 53 17" fill="none" xmlns="http://www.w3.org/2000/svg">
<path d="M27.4103 5.43482C27.3801 7.80287 29.535 9.12442 31.1583 9.91008C32.8262 10.7163 33.3864 11.2332 33.38 11.9541C33.3673 13.0575 32.0495 13.5444 30.8161 13.5633C28.6644 13.5965 27.4135 12.9863 26.4188 12.5247L25.6438 16.1274C26.6416 16.5842 28.4894 16.9826 30.4055 17C34.9031 17 37.8458 14.7948 37.8617 11.3755C37.8792 7.03617 31.8188 6.79589 31.8602 4.85624C31.8745 4.26818 32.4395 3.6406 33.6776 3.48094C34.2904 3.40032 35.9821 3.33867 37.8999 4.21601L38.6527 0.730333C37.6214 0.357264 36.2957 0 34.6453 0C30.4119 0 27.4342 2.23526 27.4103 5.43482ZM45.886 0.300354C45.0648 0.300354 44.3725 0.776176 44.0637 1.50651L37.6389 16.7439H42.1333L43.0277 14.2889H48.5199L49.0388 16.7439H53L49.5433 0.300354H45.886ZM46.5147 4.74242L47.8117 10.9171H44.2595L46.5147 4.74242ZM21.9611 0.300354L18.4184 16.7439H22.7011L26.2422 0.300354H21.9611ZM15.6253 0.300354L11.1675 11.4925L9.36436 1.97601C9.15269 0.913708 8.31716 0.300354 7.38932 0.300354H0.101856L0 0.777758C1.49601 1.10024 3.19572 1.62033 4.22542 2.17677C4.85565 2.51665 5.03549 2.81384 5.24239 3.62163L8.65774 16.7439H13.184L20.1229 0.300354H15.6253Z" fill="url(#paint0_linear)"/>
<defs>
<linearGradient id="paint0_linear" x1="51.2672" y1="8.54995" x2="7.43374" y2="0.201151" gradientUnits="userSpaceOnUse">
<stop stop-color="#222862"/>
<stop offset="1" stop-color="#2547A0"/>
</linearGradient>
</defs>
</svg>
